<?xml version="1.0" encoding="UTF-8" standalone="no"?>
<svg
   xmlns:dc="http://purl.org/dc/elements/1.1/"
   xmlns:cc="http://creativecommons.org/ns#"
   xmlns:rdf="http://www.w3.org/1999/02/22-rdf-syntax-ns#"
   xmlns:svg="http://www.w3.org/2000/svg"
   xmlns="http://www.w3.org/2000/svg"
   xmlns:sodipodi="http://sodipodi.sourceforge.net/DTD/sodipodi-0.dtd"
   xmlns:inkscape="http://www.inkscape.org/namespaces/inkscape"
   width="210mm"
   height="297mm"
   viewBox="0 0 210 297"
   version="1.1"
   id="svg8"
   inkscape:version="1.0.2-2 (e86c870879, 2021-01-15)"
   sodipodi:docname="en.svg">
  <defs
     id="defs2">
    <clipPath
       clipPathUnits="userSpaceOnUse"
       id="clipPath2104-1">
      <path
         id="path2106-9"
         style="fill:#ff0000;fill-opacity:1;fill-rule:nonzero;stroke:none;stroke-width:0.264583"
         d="m 30.416749,194.21915 v 11.66337 c 0.165883,-0.009 0.357399,-0.005 0.64027,0.004 0.611037,-0.0264 1.18944,0.23192 1.784903,0.3054 0.11629,0.0144 0.611891,0.0299 0.958599,0.0289 0.251142,-0.22815 0.499046,-0.45968 0.741555,-0.69504 0.445569,-0.66693 1.200828,-0.77709 1.834515,-1.09968 0.215117,-0.36823 0.631728,-0.70436 0.809771,-0.87126 1.064218,-0.64976 1.131038,-0.78635 2.581235,-1.09244 0.363771,-0.0768 0.737008,-0.0904 1.109493,-0.10852 -0.02347,-0.0364 -0.04934,-0.0714 -0.06718,-0.11059 -0.235157,-0.0824 -0.469998,-0.16422 -0.706935,-0.22428 -0.09009,-0.0228 -0.190214,-0.0419 -0.28887,-0.0615 -0.531317,0.096 -1.057915,0.18026 -1.376661,-0.17674 -0.0075,-0.008 -0.01254,-0.0178 -0.01963,-0.0263 -0.01259,-0.002 -0.02841,-0.004 -0.04082,-0.005 0.0029,-0.0129 0.004,-0.0268 0.0067,-0.0398 -0.440076,-0.60649 0.04412,-1.56892 0.03979,-2.34301 0.172929,0.008 0.34748,0.0253 0.521931,0.0439 0.439121,-0.35865 1.184206,0.0564 1.769401,0.0661 0.968851,0.016 1.937451,0.0229 2.906284,0.0258 0.06588,-0.0429 0.130889,-0.087 0.196887,-0.12971 -0.373423,-0.13552 -0.723231,-0.34847 -1.077971,-0.54208 -0.150286,0.008 -0.300715,0.0134 -0.451136,0.0176 -0.823822,0.0229 -2.383705,0.20844 -2.912999,-0.77567 -0.283665,-0.52741 0.106876,-1.19307 0.160195,-1.78955 0.395766,-0.29817 0.738462,-0.68394 1.187008,-0.89452 2.209739,-1.03738 2.953885,-0.91722 5.377966,-1.06402 0.627671,-0.038 1.255339,-0.0726 1.88309,-0.1049 z m 110.224281,0 c -0.0194,0.0588 -0.0396,0.11688 -0.0589,0.1757 0.0605,-0.0109 0.12162,-0.0183 0.1819,-0.0305 0.0729,-0.0147 -0.0607,0.0316 -0.18706,0.047 -0.0204,0.0624 -0.0421,0.12397 -0.0625,0.18655 0.28742,0.8224 0.59644,1.8069 -0.032,1.7787 -0.0824,-0.004 -0.16461,-0.007 -0.24701,-0.0103 -0.20165,-0.004 -0.64368,-0.0159 -0.83561,-0.0109 -0.32202,0.009 -0.64259,0.10345 -0.96377,0.10645 -0.21693,0.002 -0.43306,-0.0272 -0.64957,-0.0408 -0.27524,-0.0658 -0.63552,-0.15671 -0.97359,-0.29818 -0.38074,0.0971 -0.76442,0.18305 -1.14824,0.26769 0.3235,0.0388 1.87573,0.15674 2.21226,0.6227 0.0207,0.0287 0.0374,0.06 0.0568,0.0894 0.56299,-0.004 1.12581,-0.007 1.68878,-0.0124 0.67586,-0.006 1.35196,-0.0111 2.02778,-0.0186 0.45464,-0.11556 0.91034,-0.22868 1.35548,-0.34003 1.59844,-0.1627 2.16358,-0.26969 1.57096,1.21285 0.002,0.004 0.005,0.009 0.007,0.0134 0.1229,-0.006 0.24677,-0.01 0.37052,-0.0134 0.49653,-0.0862 1.0178,-0.17769 1.63659,-0.28474 0.83345,-0.16628 1.6687,-0.32485 2.50062,-0.49868 0.39031,-0.0815 0.77585,-0.18398 1.16582,-0.26716 0.0943,-0.0201 0.27359,-0.13784 0.28629,-0.0424 0.0348,0.26185 0.049,0.36829 0.0786,0.57567 1.31926,-0.11686 2.58223,-0.22693 4.31498,-0.37775 1.70174,-0.10769 3.38984,-0.32532 5.07514,-0.56586 v -2.26446 z m -0.0641,0.19224 c 0.002,-0.006 0.003,-0.011 0.005,-0.0165 -0.0196,0.004 -0.0393,0.006 -0.0589,0.01 -0.001,0.004 -0.002,0.008 -0.003,0.0124 0.0183,-2.6e-4 0.0374,-0.003 0.0568,-0.006 z m -99.343807,3.49436 c -0.0549,0.0711 -0.10894,0.14326 -0.1695,0.2067 0.134511,-0.023 0.243242,-0.0497 0.341064,-0.0775 -0.05797,-0.0428 -0.116094,-0.0852 -0.171564,-0.12919 z m 25.220681,0.14211 c -0.09211,0.0125 -0.184383,0.0246 -0.276468,0.0372 -0.136163,0.0319 -0.273862,0.063 -0.409276,0.0951 -0.201713,0.11732 -0.406316,0.2605 -0.619086,0.44287 -0.02625,0.0225 -0.02143,0.0396 0.0021,0.0522 0.285586,-0.10092 0.566161,-0.19599 0.849561,-0.28474 0.151257,-0.11551 0.299101,-0.23731 0.453202,-0.34261 z m 43.309496,0.091 c 0.0364,0.0501 0.0764,0.10453 0.11007,0.15193 0.009,-0.0283 0.0163,-0.0544 0.0269,-0.0837 -0.0461,-0.0219 -0.0912,-0.0454 -0.13694,-0.0682 z m -45.993053,0.5271 c -0.608995,0.15108 -1.224812,0.30577 -1.83968,0.46044 0.02429,0.0556 0.04947,0.11091 0.07183,0.16743 0.03697,0.0935 -0.150471,0.14238 -0.245462,0.17518 -0.01021,0.004 -0.01979,0.006 -0.02997,0.009 l 0.398426,-5.3e-4 c 0.264022,-2.6e-4 0.496752,0.0305 0.701765,0.0832 0.02072,-0.0176 0.04317,-0.0337 0.06356,-0.0517 0.511884,-0.18879 0.909275,-0.33828 1.307928,-0.48679 -0.151694,-0.11047 -0.295214,-0.2289 -0.428397,-0.35657 z m 25.555548,0.2005 c 0.0042,0.0216 0.0055,0.0427 0.0088,0.0641 0.0516,-0.0115 0.106437,-0.0226 0.152445,-0.0346 -0.05377,-0.01 -0.107526,-0.0192 -0.161229,-0.0295 z m 5.324221,0.0496 c -0.206176,0.0515 -0.450559,0.10233 -0.715719,0.15245 -0.766887,0.75076 -1.899089,1.39076 -2.128552,1.5353 -0.08,0.0355 -0.15908,0.0733 -0.238744,0.10956 7.94e-4,2.6e-4 0.0019,7.9e-4 0.0026,0.001 1.664975,0.17173 3.697981,0.48245 5.41414,0.33124 2.012582,-0.17733 3.986189,-0.58864 5.934519,-1.10381 -0.25582,-0.004 -0.51157,-0.009 -0.7674,-0.0114 -0.58203,-0.007 -1.16408,-0.009 -1.74614,-0.008 -0.12783,1.7e-4 -0.25561,0.003 -0.38344,0.004 -0.02196,0.0123 -0.04564,0.0228 -0.06718,0.0357 -0.346856,-0.001 -0.571008,0.01 -0.719336,-0.0191 -0.07793,0.0157 -0.191484,0.0706 -0.187068,0.006 0.0027,-0.0399 0.0024,-0.0658 0.0047,-0.10439 -0.09196,-0.11518 -0.101317,-0.3444 -0.104386,-0.79013 -0.483163,-0.005 -1.937893,-0.0444 -2.289265,-0.0537 -0.670197,-0.0185 -1.339535,-0.0491 -2.008663,-0.0842 z m -3.556889,0.48266 c -0.06604,0.008 -0.16759,0.0203 -0.259416,0.0326 0.04955,0.13255 0.142658,0.0981 0.259416,-0.0326 z m 20.458183,0.0284 c -0.0544,0.0813 -0.0919,0.22424 -0.0703,0.16485 0.0203,-0.0558 0.0466,-0.11001 0.0703,-0.16485 z m 6.24303,0.0656 c -1.8659,0.12133 -3.71197,0.29758 -5.55883,0.59428 -0.26933,0.0183 -0.54695,0.12254 -0.80823,0.0548 -0.41273,-0.10706 -0.76313,-0.21404 -1.03714,-0.35089 -0.11198,0.17297 -0.3358,0.31875 -0.68058,0.47439 -0.45168,0.2039 -0.92058,0.36756 -1.38079,0.55139 -3.71149,1.18099 -7.46097,2.29501 -11.366232,2.61121 -2.145914,0.17374 -4.161248,-0.23134 -6.287474,-0.50488 -0.843341,-0.35125 -1.546529,-0.61197 -2.205032,-0.93224 -0.759923,0.27913 -1.524172,0.54581 -2.298052,0.78238 -2.56427,0.78388 -6.38574,1.54166 -8.883179,1.79627 -0.821854,0.0837 -8.236437,-0.0724 -8.333856,-0.0744 -1.101275,-0.0757 -2.203593,-0.13814 -3.305225,-0.20877 -4.688705,1.02234 -1.59198,0.27901 -6.101438,1.18649 -1.275265,0.25663 -2.544434,0.54126 -3.816821,0.81183 -2.533517,0.69871 -5.143973,1.00265 -7.742679,1.33326 -0.826574,0.10514 -1.652291,0.21761 -2.477884,0.33021 -0.503949,0.0687 -1.002487,0.18934 -1.510503,0.21394 -0.562766,0.0273 -1.12622,-0.0392 -1.689301,-0.0589 -0.03317,-0.007 -0.06653,-0.0144 -0.09974,-0.0217 -0.565457,0.37278 -1.108781,0.76965 -1.71514,1.09296 -0.944568,0.50363 -2.023758,0.85323 -2.977078,1.35444 -0.269521,0.13225 -0.55934,0.22974 -0.808736,0.39687 -1.40534,0.94178 0.59269,0.11103 -1.53841,1.1219 -0.282977,0.13423 -0.589237,0.21786 -0.895551,0.28319 -1.539226,0.32821 -1.562102,0.25476 -3.056144,0.25476 l 0.0011,5.3e-4 c -0.310944,0 -0.575667,-0.0459 -0.804601,-0.11886 v 19.67167 H 160.01196 v -18.12034 c -0.15405,0.0117 -0.32789,0.0175 -0.59944,0.0289 -1.00911,0.0229 -1.99759,0.0352 -3.00499,-0.0599 -0.73997,-0.0698 -0.68227,-0.15998 -1.46709,-0.19378 -0.17956,-0.008 -0.35859,0.0228 -0.53795,0.0341 -0.82776,0.008 -1.57007,0.0735 -2.08256,-0.46508 -0.10461,-0.005 -0.20898,-0.0126 -0.31368,-0.0176 -1.71114,-0.0808 -0.69684,0.0404 -2.75591,-0.108 -0.36631,-0.0265 -0.72987,-0.0784 -1.09502,-0.11783 -0.55803,-0.19975 -1.13906,-0.34488 -1.67431,-0.59944 -0.0648,-0.0308 -0.11581,-0.0811 -0.1633,-0.13591 -0.87243,-0.0227 -1.74387,-0.0658 -2.6138,-0.14263 -0.0584,-0.004 -2.21615,-0.11093 -2.29185,-0.16433 -0.43133,-0.30433 -1.08537,-0.61989 -1.09037,-1.14774 -0.005,-0.55315 0.12754,-0.87814 0.33486,-1.07538 -0.48703,-1.35375 -0.41138,-1.82708 0.1633,-2.07739 0.0646,-0.063 0.1671,-0.0915 0.29042,-0.10129 0.1662,-0.0476 0.35461,-0.0901 0.57051,-0.13591 0.26199,-0.0961 0.53381,-0.14874 0.80925,-0.18293 0.16827,-0.19955 0.36238,-0.3849 0.56586,-0.55552 -0.97908,0.49026 -2.28898,0.72216 -3.29127,0.96583 -0.48757,0.008 -0.98723,0.13139 -1.46296,0.0243 -0.0162,-0.004 -0.0319,-0.007 -0.0481,-0.0109 -0.17628,0.0445 -0.3521,0.0901 -0.52968,0.12919 -0.78495,0.17292 -2.99795,0.12147 -3.59462,0.12247 -0.382,-0.0613 -0.76361,-0.12277 -1.14566,-0.18396 -0.35543,-0.0569 -0.83941,0.10919 -1.0666,-0.17002 -0.0189,-0.0232 -0.0346,-0.0484 -0.0527,-0.0724 -0.61027,0.0789 -1.16282,-0.0719 -0.63666,-1.3224 -0.0333,-0.11143 -0.062,-0.22376 -0.0899,-0.33641 -0.65137,-0.0395 -1.30303,-0.0814 -1.95544,-0.0816 -0.34697,-2e-4 -0.69112,0.0633 -1.03663,0.0951 -0.46765,0.0456 -0.93479,0.0978 -1.40302,0.13695 -1.34393,0.11236 -1.93774,0.37409 -2.28048,-1.66192 -0.30416,-0.0374 -0.60641,-0.0837 -0.90382,-0.15606 -1.03722,-0.2522 -2.24771,-0.28321 -3.04477,-0.99322 -0.0892,-0.0795 -0.15258,-0.15882 -0.20567,-0.23771 -0.33296,-0.0391 -0.65201,-0.11735 -0.90176,-0.27027 -0.0843,0.0211 -0.16804,0.0442 -0.25166,0.0677 -0.34383,0.82631 -0.97071,0.84612 -1.91668,0.83664 -0.12674,-0.33214 -0.31305,-0.65277 -0.47232,-0.97875 -0.44844,-0.3093 -1.02834,-0.79534 -0.5762,-1.387 0.66708,-0.87293 2.16878,-1.26159 3.23857,-1.38389 0.63113,-0.0722 1.21001,-0.11966 1.77973,-0.1602 -0.18129,0.005 -0.36286,0.007 -0.54415,0.004 -0.29917,-0.005 -2.10938,-0.20061 -2.86908,-0.28319 z m 5.63738,0.0713 c -0.2883,0.0454 -0.57508,0.10126 -0.86558,0.12713 0.2695,-0.0137 0.54962,-0.0282 0.82837,-0.0413 0.0123,-0.0285 0.0237,-0.0574 0.0372,-0.0858 z m -46.939251,0.004 c -0.346572,0.0742 -0.693137,0.14861 -1.039731,0.22272 0.407861,0.61251 0.749824,1.29789 0.856279,2.02159 0.03197,0.21738 -0.376565,0.23389 -0.584461,0.30489 -0.104551,0.0357 -0.220676,0.064 -0.341064,0.0894 0.929362,0.005 1.683668,0.002 1.900661,-0.0207 1.857851,-0.19189 3.699184,-0.52976 5.51439,-0.97565 -0.142746,-0.0281 -0.289595,-0.0583 -0.451133,-0.0956 -0.44922,-0.10361 -1.67522,-0.73932 -2.331641,-1.11569 -1.162137,-0.0616 -2.336919,-0.10909 -3.460771,-0.41445 -0.01953,-0.005 -0.04263,-0.0113 -0.06253,-0.0165 z m 41.452251,1.08779 c -0.0364,-0.006 -0.0753,-0.006 -0.11783,5.3e-4 0.0546,0.0197 0.0988,0.0356 0.14935,0.0532 0.0233,-0.008 0.0469,-0.0144 0.0703,-0.0217 -0.0316,-0.0149 -0.0654,-0.0264 -0.1018,-0.032 z m 0.23047,2.53783 c -0.052,0.0228 -0.10508,0.0425 -0.15658,0.0667 -0.0487,0.0229 0.16156,0.0678 0.16072,0.014 -5.3e-4,-0.027 -0.003,-0.0537 -0.004,-0.0806 z m 4.1522,0.15606 c -0.008,0.003 -0.0151,0.007 -0.0227,0.0103 0.0149,0.21495 0.0155,0.14023 0.0227,-0.0103 z m -80.733566,2.10478 c -0.02241,-0.003 -0.03576,-0.002 -0.02119,0.003 0.04872,0.0155 0.01961,0.007 0.05633,0.0186 0.01381,-5.3e-4 0.02753,-0.002 0.04134,-0.003 -0.02257,-0.009 -0.05407,-0.0143 -0.07648,-0.017 z m 84.551936,0.12609 c -0.042,0.0184 -0.0843,0.0361 -0.12609,0.0548 -0.0442,0.0197 0.12613,0.11818 0.12713,0.0698 0.001,-0.0414 -5.3e-4,-0.0831 -0.001,-0.12454 z m 21.80746,2.93729 c -0.14015,0.017 -0.2905,0.034 -0.41806,0.0512 -0.0238,0.0141 -0.0474,0.0284 -0.0713,0.0424 0.14509,0.0303 0.29032,0.0603 0.43615,0.0858 0.0269,-0.004 0.0604,-0.008 0.0873,-0.0119 -0.0152,-0.0551 -0.0234,-0.11126 -0.0341,-0.16743 z m -117.536491,0.0615 v 0.51366 c 0.129979,-0.17049 0.274476,-0.32973 0.381889,-0.44235 -0.127016,-0.0248 -0.254659,-0.0474 -0.381889,-0.0713 z m 0,1.71721 v 0.008 c 0.0016,-5.3e-4 0.0026,-0.001 0.0041,-0.002 -0.0016,-0.002 -0.0026,-0.004 -0.0041,-0.006 z" />
    </clipPath>
    <clipPath
       clipPathUnits="userSpaceOnUse"
       id="clipPath2104-4">
      <path
         id="path2106-8"
         style="fill:#ff0000;fill-opacity:1;fill-rule:nonzero;stroke:none;stroke-width:0.264583"
         d="m 30.416749,194.21915 v 11.66337 c 0.165883,-0.009 0.357399,-0.005 0.64027,0.004 0.611037,-0.0264 1.18944,0.23192 1.784903,0.3054 0.11629,0.0144 0.611891,0.0299 0.958599,0.0289 0.251142,-0.22815 0.499046,-0.45968 0.741555,-0.69504 0.445569,-0.66693 1.200828,-0.77709 1.834515,-1.09968 0.215117,-0.36823 0.631728,-0.70436 0.809771,-0.87126 1.064218,-0.64976 1.131038,-0.78635 2.581235,-1.09244 0.363771,-0.0768 0.737008,-0.0904 1.109493,-0.10852 -0.02347,-0.0364 -0.04934,-0.0714 -0.06718,-0.11059 -0.235157,-0.0824 -0.469998,-0.16422 -0.706935,-0.22428 -0.09009,-0.0228 -0.190214,-0.0419 -0.28887,-0.0615 -0.531317,0.096 -1.057915,0.18026 -1.376661,-0.17674 -0.0075,-0.008 -0.01254,-0.0178 -0.01963,-0.0263 -0.01259,-0.002 -0.02841,-0.004 -0.04082,-0.005 0.0029,-0.0129 0.004,-0.0268 0.0067,-0.0398 -0.440076,-0.60649 0.04412,-1.56892 0.03979,-2.34301 0.172929,0.008 0.34748,0.0253 0.521931,0.0439 0.439121,-0.35865 1.184206,0.0564 1.769401,0.0661 0.968851,0.016 1.937451,0.0229 2.906284,0.0258 0.06588,-0.0429 0.130889,-0.087 0.196887,-0.12971 -0.373423,-0.13552 -0.723231,-0.34847 -1.077971,-0.54208 -0.150286,0.008 -0.300715,0.0134 -0.451136,0.0176 -0.823822,0.0229 -2.383705,0.20844 -2.912999,-0.77567 -0.283665,-0.52741 0.106876,-1.19307 0.160195,-1.78955 0.395766,-0.29817 0.738462,-0.68394 1.187008,-0.89452 2.209739,-1.03738 2.953885,-0.91722 5.377966,-1.06402 0.627671,-0.038 1.255339,-0.0726 1.88309,-0.1049 z m 110.224281,0 c -0.0194,0.0588 -0.0396,0.11688 -0.0589,0.1757 0.0605,-0.0109 0.12162,-0.0183 0.1819,-0.0305 0.0729,-0.0147 -0.0607,0.0316 -0.18706,0.047 -0.0204,0.0624 -0.0421,0.12397 -0.0625,0.18655 0.28742,0.8224 0.59644,1.8069 -0.032,1.7787 -0.0824,-0.004 -0.16461,-0.007 -0.24701,-0.0103 -0.20165,-0.004 -0.64368,-0.0159 -0.83561,-0.0109 -0.32202,0.009 -0.64259,0.10345 -0.96377,0.10645 -0.21693,0.002 -0.43306,-0.0272 -0.64957,-0.0408 -0.27524,-0.0658 -0.63552,-0.15671 -0.97359,-0.29818 -0.38074,0.0971 -0.76442,0.18305 -1.14824,0.26769 0.3235,0.0388 1.87573,0.15674 2.21226,0.6227 0.0207,0.0287 0.0374,0.06 0.0568,0.0894 0.56299,-0.004 1.12581,-0.007 1.68878,-0.0124 0.67586,-0.006 1.35196,-0.0111 2.02778,-0.0186 0.45464,-0.11556 0.91034,-0.22868 1.35548,-0.34003 1.59844,-0.1627 2.16358,-0.26969 1.57096,1.21285 0.002,0.004 0.005,0.009 0.007,0.0134 0.1229,-0.006 0.24677,-0.01 0.37052,-0.0134 0.49653,-0.0862 1.0178,-0.17769 1.63659,-0.28474 0.83345,-0.16628 1.6687,-0.32485 2.50062,-0.49868 0.39031,-0.0815 0.77585,-0.18398 1.16582,-0.26716 0.0943,-0.0201 0.27359,-0.13784 0.28629,-0.0424 0.0348,0.26185 0.049,0.36829 0.0786,0.57567 1.31926,-0.11686 2.58223,-0.22693 4.31498,-0.37775 1.70174,-0.10769 3.38984,-0.32532 5.07514,-0.56586 v -2.26446 z m -0.0641,0.19224 c 0.002,-0.006 0.003,-0.011 0.005,-0.0165 -0.0196,0.004 -0.0393,0.006 -0.0589,0.01 -0.001,0.004 -0.002,0.008 -0.003,0.0124 0.0183,-2.6e-4 0.0374,-0.003 0.0568,-0.006 z m -99.343807,3.49436 c -0.0549,0.0711 -0.10894,0.14326 -0.1695,0.2067 0.134511,-0.023 0.243242,-0.0497 0.341064,-0.0775 -0.05797,-0.0428 -0.116094,-0.0852 -0.171564,-0.12919 z m 25.220681,0.14211 c -0.09211,0.0125 -0.184383,0.0246 -0.276468,0.0372 -0.136163,0.0319 -0.273862,0.063 -0.409276,0.0951 -0.201713,0.11732 -0.406316,0.2605 -0.619086,0.44287 -0.02625,0.0225 -0.02143,0.0396 0.0021,0.0522 0.285586,-0.10092 0.566161,-0.19599 0.849561,-0.28474 0.151257,-0.11551 0.299101,-0.23731 0.453202,-0.34261 z m 43.309496,0.091 c 0.0364,0.0501 0.0764,0.10453 0.11007,0.15193 0.009,-0.0283 0.0163,-0.0544 0.0269,-0.0837 -0.0461,-0.0219 -0.0912,-0.0454 -0.13694,-0.0682 z m -45.993053,0.5271 c -0.608995,0.15108 -1.224812,0.30577 -1.83968,0.46044 0.02429,0.0556 0.04947,0.11091 0.07183,0.16743 0.03697,0.0935 -0.150471,0.14238 -0.245462,0.17518 -0.01021,0.004 -0.01979,0.006 -0.02997,0.009 l 0.398426,-5.3e-4 c 0.264022,-2.6e-4 0.496752,0.0305 0.701765,0.0832 0.02072,-0.0176 0.04317,-0.0337 0.06356,-0.0517 0.511884,-0.18879 0.909275,-0.33828 1.307928,-0.48679 -0.151694,-0.11047 -0.295214,-0.2289 -0.428397,-0.35657 z m 25.555548,0.2005 c 0.0042,0.0216 0.0055,0.0427 0.0088,0.0641 0.0516,-0.0115 0.106437,-0.0226 0.152445,-0.0346 -0.05377,-0.01 -0.107526,-0.0192 -0.161229,-0.0295 z m 5.324221,0.0496 c -0.206176,0.0515 -0.450559,0.10233 -0.715719,0.15245 -0.766887,0.75076 -1.899089,1.39076 -2.128552,1.5353 -0.08,0.0355 -0.15908,0.0733 -0.238744,0.10956 7.94e-4,2.6e-4 0.0019,7.9e-4 0.0026,0.001 1.664975,0.17173 3.697981,0.48245 5.41414,0.33124 2.012582,-0.17733 3.986189,-0.58864 5.934519,-1.10381 -0.25582,-0.004 -0.51157,-0.009 -0.7674,-0.0114 -0.58203,-0.007 -1.16408,-0.009 -1.74614,-0.008 -0.12783,1.7e-4 -0.25561,0.003 -0.38344,0.004 -0.02196,0.0123 -0.04564,0.0228 -0.06718,0.0357 -0.346856,-0.001 -0.571008,0.01 -0.719336,-0.0191 -0.07793,0.0157 -0.191484,0.0706 -0.187068,0.006 0.0027,-0.0399 0.0024,-0.0658 0.0047,-0.10439 -0.09196,-0.11518 -0.101317,-0.3444 -0.104386,-0.79013 -0.483163,-0.005 -1.937893,-0.0444 -2.289265,-0.0537 -0.670197,-0.0185 -1.339535,-0.0491 -2.008663,-0.0842 z m -3.556889,0.48266 c -0.06604,0.008 -0.16759,0.0203 -0.259416,0.0326 0.04955,0.13255 0.142658,0.0981 0.259416,-0.0326 z m 20.458183,0.0284 c -0.0544,0.0813 -0.0919,0.22424 -0.0703,0.16485 0.0203,-0.0558 0.0466,-0.11001 0.0703,-0.16485 z m 6.24303,0.0656 c -1.8659,0.12133 -3.71197,0.29758 -5.55883,0.59428 -0.26933,0.0183 -0.54695,0.12254 -0.80823,0.0548 -0.41273,-0.10706 -0.76313,-0.21404 -1.03714,-0.35089 -0.11198,0.17297 -0.3358,0.31875 -0.68058,0.47439 -0.45168,0.2039 -0.92058,0.36756 -1.38079,0.55139 -3.71149,1.18099 -7.46097,2.29501 -11.366232,2.61121 -2.145914,0.17374 -4.161248,-0.23134 -6.287474,-0.50488 -0.843341,-0.35125 -1.546529,-0.61197 -2.205032,-0.93224 -0.759923,0.27913 -1.524172,0.54581 -2.298052,0.78238 -2.56427,0.78388 -6.38574,1.54166 -8.883179,1.79627 -0.821854,0.0837 -8.236437,-0.0724 -8.333856,-0.0744 -1.101275,-0.0757 -2.203593,-0.13814 -3.305225,-0.20877 -4.688705,1.02234 -1.59198,0.27901 -6.101438,1.18649 -1.275265,0.25663 -2.544434,0.54126 -3.816821,0.81183 -2.533517,0.69871 -5.143973,1.00265 -7.742679,1.33326 -0.826574,0.10514 -1.652291,0.21761 -2.477884,0.33021 -0.503949,0.0687 -1.002487,0.18934 -1.510503,0.21394 -0.562766,0.0273 -1.12622,-0.0392 -1.689301,-0.0589 -0.03317,-0.007 -0.06653,-0.0144 -0.09974,-0.0217 -0.565457,0.37278 -1.108781,0.76965 -1.71514,1.09296 -0.944568,0.50363 -2.023758,0.85323 -2.977078,1.35444 -0.269521,0.13225 -0.55934,0.22974 -0.808736,0.39687 -1.40534,0.94178 0.59269,0.11103 -1.53841,1.1219 -0.282977,0.13423 -0.589237,0.21786 -0.895551,0.28319 -1.539226,0.32821 -1.562102,0.25476 -3.056144,0.25476 l 0.0011,5.3e-4 c -0.310944,0 -0.575667,-0.0459 -0.804601,-0.11886 v 19.67167 H 160.01196 v -18.12034 c -0.15405,0.0117 -0.32789,0.0175 -0.59944,0.0289 -1.00911,0.0229 -1.99759,0.0352 -3.00499,-0.0599 -0.73997,-0.0698 -0.68227,-0.15998 -1.46709,-0.19378 -0.17956,-0.008 -0.35859,0.0228 -0.53795,0.0341 -0.82776,0.008 -1.57007,0.0735 -2.08256,-0.46508 -0.10461,-0.005 -0.20898,-0.0126 -0.31368,-0.0176 -1.71114,-0.0808 -0.69684,0.0404 -2.75591,-0.108 -0.36631,-0.0265 -0.72987,-0.0784 -1.09502,-0.11783 -0.55803,-0.19975 -1.13906,-0.34488 -1.67431,-0.59944 -0.0648,-0.0308 -0.11581,-0.0811 -0.1633,-0.13591 -0.87243,-0.0227 -1.74387,-0.0658 -2.6138,-0.14263 -0.0584,-0.004 -2.21615,-0.11093 -2.29185,-0.16433 -0.43133,-0.30433 -1.08537,-0.61989 -1.09037,-1.14774 -0.005,-0.55315 0.12754,-0.87814 0.33486,-1.07538 -0.48703,-1.35375 -0.41138,-1.82708 0.1633,-2.07739 0.0646,-0.063 0.1671,-0.0915 0.29042,-0.10129 0.1662,-0.0476 0.35461,-0.0901 0.57051,-0.13591 0.26199,-0.0961 0.53381,-0.14874 0.80925,-0.18293 0.16827,-0.19955 0.36238,-0.3849 0.56586,-0.55552 -0.97908,0.49026 -2.28898,0.72216 -3.29127,0.96583 -0.48757,0.008 -0.98723,0.13139 -1.46296,0.0243 -0.0162,-0.004 -0.0319,-0.007 -0.0481,-0.0109 -0.17628,0.0445 -0.3521,0.0901 -0.52968,0.12919 -0.78495,0.17292 -2.99795,0.12147 -3.59462,0.12247 -0.382,-0.0613 -0.76361,-0.12277 -1.14566,-0.18396 -0.35543,-0.0569 -0.83941,0.10919 -1.0666,-0.17002 -0.0189,-0.0232 -0.0346,-0.0484 -0.0527,-0.0724 -0.61027,0.0789 -1.16282,-0.0719 -0.63666,-1.3224 -0.0333,-0.11143 -0.062,-0.22376 -0.0899,-0.33641 -0.65137,-0.0395 -1.30303,-0.0814 -1.95544,-0.0816 -0.34697,-2e-4 -0.69112,0.0633 -1.03663,0.0951 -0.46765,0.0456 -0.93479,0.0978 -1.40302,0.13695 -1.34393,0.11236 -1.93774,0.37409 -2.28048,-1.66192 -0.30416,-0.0374 -0.60641,-0.0837 -0.90382,-0.15606 -1.03722,-0.2522 -2.24771,-0.28321 -3.04477,-0.99322 -0.0892,-0.0795 -0.15258,-0.15882 -0.20567,-0.23771 -0.33296,-0.0391 -0.65201,-0.11735 -0.90176,-0.27027 -0.0843,0.0211 -0.16804,0.0442 -0.25166,0.0677 -0.34383,0.82631 -0.97071,0.84612 -1.91668,0.83664 -0.12674,-0.33214 -0.31305,-0.65277 -0.47232,-0.97875 -0.44844,-0.3093 -1.02834,-0.79534 -0.5762,-1.387 0.66708,-0.87293 2.16878,-1.26159 3.23857,-1.38389 0.63113,-0.0722 1.21001,-0.11966 1.77973,-0.1602 -0.18129,0.005 -0.36286,0.007 -0.54415,0.004 -0.29917,-0.005 -2.10938,-0.20061 -2.86908,-0.28319 z m 5.63738,0.0713 c -0.2883,0.0454 -0.57508,0.10126 -0.86558,0.12713 0.2695,-0.0137 0.54962,-0.0282 0.82837,-0.0413 0.0123,-0.0285 0.0237,-0.0574 0.0372,-0.0858 z m -46.939251,0.004 c -0.346572,0.0742 -0.693137,0.14861 -1.039731,0.22272 0.407861,0.61251 0.749824,1.29789 0.856279,2.02159 0.03197,0.21738 -0.376565,0.23389 -0.584461,0.30489 -0.104551,0.0357 -0.220676,0.064 -0.341064,0.0894 0.929362,0.005 1.683668,0.002 1.900661,-0.0207 1.857851,-0.19189 3.699184,-0.52976 5.51439,-0.97565 -0.142746,-0.0281 -0.289595,-0.0583 -0.451133,-0.0956 -0.44922,-0.10361 -1.67522,-0.73932 -2.331641,-1.11569 -1.162137,-0.0616 -2.336919,-0.10909 -3.460771,-0.41445 -0.01953,-0.005 -0.04263,-0.0113 -0.06253,-0.0165 z m 41.452251,1.08779 c -0.0364,-0.006 -0.0753,-0.006 -0.11783,5.3e-4 0.0546,0.0197 0.0988,0.0356 0.14935,0.0532 0.0233,-0.008 0.0469,-0.0144 0.0703,-0.0217 -0.0316,-0.0149 -0.0654,-0.0264 -0.1018,-0.032 z m 0.23047,2.53783 c -0.052,0.0228 -0.10508,0.0425 -0.15658,0.0667 -0.0487,0.0229 0.16156,0.0678 0.16072,0.014 -5.3e-4,-0.027 -0.003,-0.0537 -0.004,-0.0806 z m 4.1522,0.15606 c -0.008,0.003 -0.0151,0.007 -0.0227,0.0103 0.0149,0.21495 0.0155,0.14023 0.0227,-0.0103 z m -80.733566,2.10478 c -0.02241,-0.003 -0.03576,-0.002 -0.02119,0.003 0.04872,0.0155 0.01961,0.007 0.05633,0.0186 0.01381,-5.3e-4 0.02753,-0.002 0.04134,-0.003 -0.02257,-0.009 -0.05407,-0.0143 -0.07648,-0.017 z m 84.551936,0.12609 c -0.042,0.0184 -0.0843,0.0361 -0.12609,0.0548 -0.0442,0.0197 0.12613,0.11818 0.12713,0.0698 0.001,-0.0414 -5.3e-4,-0.0831 -0.001,-0.12454 z m 21.80746,2.93729 c -0.14015,0.017 -0.2905,0.034 -0.41806,0.0512 -0.0238,0.0141 -0.0474,0.0284 -0.0713,0.0424 0.14509,0.0303 0.29032,0.0603 0.43615,0.0858 0.0269,-0.004 0.0604,-0.008 0.0873,-0.0119 -0.0152,-0.0551 -0.0234,-0.11126 -0.0341,-0.16743 z m -117.536491,0.0615 v 0.51366 c 0.129979,-0.17049 0.274476,-0.32973 0.381889,-0.44235 -0.127016,-0.0248 -0.254659,-0.0474 -0.381889,-0.0713 z m 0,1.71721 v 0.008 c 0.0016,-5.3e-4 0.0026,-0.001 0.0041,-0.002 -0.0016,-0.002 -0.0026,-0.004 -0.0041,-0.006 z" />
    </clipPath>
    <clipPath
       clipPathUnits="userSpaceOnUse"
       id="clipPath2104-6">
      <path
         id="path2106-82"
         style="fill:#ff0000;fill-opacity:1;fill-rule:nonzero;stroke:none;stroke-width:0.264583"
         d="m 30.416749,194.21915 v 11.66337 c 0.165883,-0.009 0.357399,-0.005 0.64027,0.004 0.611037,-0.0264 1.18944,0.23192 1.784903,0.3054 0.11629,0.0144 0.611891,0.0299 0.958599,0.0289 0.251142,-0.22815 0.499046,-0.45968 0.741555,-0.69504 0.445569,-0.66693 1.200828,-0.77709 1.834515,-1.09968 0.215117,-0.36823 0.631728,-0.70436 0.809771,-0.87126 1.064218,-0.64976 1.131038,-0.78635 2.581235,-1.09244 0.363771,-0.0768 0.737008,-0.0904 1.109493,-0.10852 -0.02347,-0.0364 -0.04934,-0.0714 -0.06718,-0.11059 -0.235157,-0.0824 -0.469998,-0.16422 -0.706935,-0.22428 -0.09009,-0.0228 -0.190214,-0.0419 -0.28887,-0.0615 -0.531317,0.096 -1.057915,0.18026 -1.376661,-0.17674 -0.0075,-0.008 -0.01254,-0.0178 -0.01963,-0.0263 -0.01259,-0.002 -0.02841,-0.004 -0.04082,-0.005 0.0029,-0.0129 0.004,-0.0268 0.0067,-0.0398 -0.440076,-0.60649 0.04412,-1.56892 0.03979,-2.34301 0.172929,0.008 0.34748,0.0253 0.521931,0.0439 0.439121,-0.35865 1.184206,0.0564 1.769401,0.0661 0.968851,0.016 1.937451,0.0229 2.906284,0.0258 0.06588,-0.0429 0.130889,-0.087 0.196887,-0.12971 -0.373423,-0.13552 -0.723231,-0.34847 -1.077971,-0.54208 -0.150286,0.008 -0.300715,0.0134 -0.451136,0.0176 -0.823822,0.0229 -2.383705,0.20844 -2.912999,-0.77567 -0.283665,-0.52741 0.106876,-1.19307 0.160195,-1.78955 0.395766,-0.29817 0.738462,-0.68394 1.187008,-0.89452 2.209739,-1.03738 2.953885,-0.91722 5.377966,-1.06402 0.627671,-0.038 1.255339,-0.0726 1.88309,-0.1049 z m 110.224281,0 c -0.0194,0.0588 -0.0396,0.11688 -0.0589,0.1757 0.0605,-0.0109 0.12162,-0.0183 0.1819,-0.0305 0.0729,-0.0147 -0.0607,0.0316 -0.18706,0.047 -0.0204,0.0624 -0.0421,0.12397 -0.0625,0.18655 0.28742,0.8224 0.59644,1.8069 -0.032,1.7787 -0.0824,-0.004 -0.16461,-0.007 -0.24701,-0.0103 -0.20165,-0.004 -0.64368,-0.0159 -0.83561,-0.0109 -0.32202,0.009 -0.64259,0.10345 -0.96377,0.10645 -0.21693,0.002 -0.43306,-0.0272 -0.64957,-0.0408 -0.27524,-0.0658 -0.63552,-0.15671 -0.97359,-0.29818 -0.38074,0.0971 -0.76442,0.18305 -1.14824,0.26769 0.3235,0.0388 1.87573,0.15674 2.21226,0.6227 0.0207,0.0287 0.0374,0.06 0.0568,0.0894 0.56299,-0.004 1.12581,-0.007 1.68878,-0.0124 0.67586,-0.006 1.35196,-0.0111 2.02778,-0.0186 0.45464,-0.11556 0.91034,-0.22868 1.35548,-0.34003 1.59844,-0.1627 2.16358,-0.26969 1.57096,1.21285 0.002,0.004 0.005,0.009 0.007,0.0134 0.1229,-0.006 0.24677,-0.01 0.37052,-0.0134 0.49653,-0.0862 1.0178,-0.17769 1.63659,-0.28474 0.83345,-0.16628 1.6687,-0.32485 2.50062,-0.49868 0.39031,-0.0815 0.77585,-0.18398 1.16582,-0.26716 0.0943,-0.0201 0.27359,-0.13784 0.28629,-0.0424 0.0348,0.26185 0.049,0.36829 0.0786,0.57567 1.31926,-0.11686 2.58223,-0.22693 4.31498,-0.37775 1.70174,-0.10769 3.38984,-0.32532 5.07514,-0.56586 v -2.26446 z m -0.0641,0.19224 c 0.002,-0.006 0.003,-0.011 0.005,-0.0165 -0.0196,0.004 -0.0393,0.006 -0.0589,0.01 -0.001,0.004 -0.002,0.008 -0.003,0.0124 0.0183,-2.6e-4 0.0374,-0.003 0.0568,-0.006 z m -99.343807,3.49436 c -0.0549,0.0711 -0.10894,0.14326 -0.1695,0.2067 0.134511,-0.023 0.243242,-0.0497 0.341064,-0.0775 -0.05797,-0.0428 -0.116094,-0.0852 -0.171564,-0.12919 z m 25.220681,0.14211 c -0.09211,0.0125 -0.184383,0.0246 -0.276468,0.0372 -0.136163,0.0319 -0.273862,0.063 -0.409276,0.0951 -0.201713,0.11732 -0.406316,0.2605 -0.619086,0.44287 -0.02625,0.0225 -0.02143,0.0396 0.0021,0.0522 0.285586,-0.10092 0.566161,-0.19599 0.849561,-0.28474 0.151257,-0.11551 0.299101,-0.23731 0.453202,-0.34261 z m 43.309496,0.091 c 0.0364,0.0501 0.0764,0.10453 0.11007,0.15193 0.009,-0.0283 0.0163,-0.0544 0.0269,-0.0837 -0.0461,-0.0219 -0.0912,-0.0454 -0.13694,-0.0682 z m -45.993053,0.5271 c -0.608995,0.15108 -1.224812,0.30577 -1.83968,0.46044 0.02429,0.0556 0.04947,0.11091 0.07183,0.16743 0.03697,0.0935 -0.150471,0.14238 -0.245462,0.17518 -0.01021,0.004 -0.01979,0.006 -0.02997,0.009 l 0.398426,-5.3e-4 c 0.264022,-2.6e-4 0.496752,0.0305 0.701765,0.0832 0.02072,-0.0176 0.04317,-0.0337 0.06356,-0.0517 0.511884,-0.18879 0.909275,-0.33828 1.307928,-0.48679 -0.151694,-0.11047 -0.295214,-0.2289 -0.428397,-0.35657 z m 25.555548,0.2005 c 0.0042,0.0216 0.0055,0.0427 0.0088,0.0641 0.0516,-0.0115 0.106437,-0.0226 0.152445,-0.0346 -0.05377,-0.01 -0.107526,-0.0192 -0.161229,-0.0295 z m 5.324221,0.0496 c -0.206176,0.0515 -0.450559,0.10233 -0.715719,0.15245 -0.766887,0.75076 -1.899089,1.39076 -2.128552,1.5353 -0.08,0.0355 -0.15908,0.0733 -0.238744,0.10956 7.94e-4,2.6e-4 0.0019,7.9e-4 0.0026,0.001 1.664975,0.17173 3.697981,0.48245 5.41414,0.33124 2.012582,-0.17733 3.986189,-0.58864 5.934519,-1.10381 -0.25582,-0.004 -0.51157,-0.009 -0.7674,-0.0114 -0.58203,-0.007 -1.16408,-0.009 -1.74614,-0.008 -0.12783,1.7e-4 -0.25561,0.003 -0.38344,0.004 -0.02196,0.0123 -0.04564,0.0228 -0.06718,0.0357 -0.346856,-0.001 -0.571008,0.01 -0.719336,-0.0191 -0.07793,0.0157 -0.191484,0.0706 -0.187068,0.006 0.0027,-0.0399 0.0024,-0.0658 0.0047,-0.10439 -0.09196,-0.11518 -0.101317,-0.3444 -0.104386,-0.79013 -0.483163,-0.005 -1.937893,-0.0444 -2.289265,-0.0537 -0.670197,-0.0185 -1.339535,-0.0491 -2.008663,-0.0842 z m -3.556889,0.48266 c -0.06604,0.008 -0.16759,0.0203 -0.259416,0.0326 0.04955,0.13255 0.142658,0.0981 0.259416,-0.0326 z m 20.458183,0.0284 c -0.0544,0.0813 -0.0919,0.22424 -0.0703,0.16485 0.0203,-0.0558 0.0466,-0.11001 0.0703,-0.16485 z m 6.24303,0.0656 c -1.8659,0.12133 -3.71197,0.29758 -5.55883,0.59428 -0.26933,0.0183 -0.54695,0.12254 -0.80823,0.0548 -0.41273,-0.10706 -0.76313,-0.21404 -1.03714,-0.35089 -0.11198,0.17297 -0.3358,0.31875 -0.68058,0.47439 -0.45168,0.2039 -0.92058,0.36756 -1.38079,0.55139 -3.71149,1.18099 -7.46097,2.29501 -11.366232,2.61121 -2.145914,0.17374 -4.161248,-0.23134 -6.287474,-0.50488 -0.843341,-0.35125 -1.546529,-0.61197 -2.205032,-0.93224 -0.759923,0.27913 -1.524172,0.54581 -2.298052,0.78238 -2.56427,0.78388 -6.38574,1.54166 -8.883179,1.79627 -0.821854,0.0837 -8.236437,-0.0724 -8.333856,-0.0744 -1.101275,-0.0757 -2.203593,-0.13814 -3.305225,-0.20877 -4.688705,1.02234 -1.59198,0.27901 -6.101438,1.18649 -1.275265,0.25663 -2.544434,0.54126 -3.816821,0.81183 -2.533517,0.69871 -5.143973,1.00265 -7.742679,1.33326 -0.826574,0.10514 -1.652291,0.21761 -2.477884,0.33021 -0.503949,0.0687 -1.002487,0.18934 -1.510503,0.21394 -0.562766,0.0273 -1.12622,-0.0392 -1.689301,-0.0589 -0.03317,-0.007 -0.06653,-0.0144 -0.09974,-0.0217 -0.565457,0.37278 -1.108781,0.76965 -1.71514,1.09296 -0.944568,0.50363 -2.023758,0.85323 -2.977078,1.35444 -0.269521,0.13225 -0.55934,0.22974 -0.808736,0.39687 -1.40534,0.94178 0.59269,0.11103 -1.53841,1.1219 -0.282977,0.13423 -0.589237,0.21786 -0.895551,0.28319 -1.539226,0.32821 -1.562102,0.25476 -3.056144,0.25476 l 0.0011,5.3e-4 c -0.310944,0 -0.575667,-0.0459 -0.804601,-0.11886 v 19.67167 H 160.01196 v -18.12034 c -0.15405,0.0117 -0.32789,0.0175 -0.59944,0.0289 -1.00911,0.0229 -1.99759,0.0352 -3.00499,-0.0599 -0.73997,-0.0698 -0.68227,-0.15998 -1.46709,-0.19378 -0.17956,-0.008 -0.35859,0.0228 -0.53795,0.0341 -0.82776,0.008 -1.57007,0.0735 -2.08256,-0.46508 -0.10461,-0.005 -0.20898,-0.0126 -0.31368,-0.0176 -1.71114,-0.0808 -0.69684,0.0404 -2.75591,-0.108 -0.36631,-0.0265 -0.72987,-0.0784 -1.09502,-0.11783 -0.55803,-0.19975 -1.13906,-0.34488 -1.67431,-0.59944 -0.0648,-0.0308 -0.11581,-0.0811 -0.1633,-0.13591 -0.87243,-0.0227 -1.74387,-0.0658 -2.6138,-0.14263 -0.0584,-0.004 -2.21615,-0.11093 -2.29185,-0.16433 -0.43133,-0.30433 -1.08537,-0.61989 -1.09037,-1.14774 -0.005,-0.55315 0.12754,-0.87814 0.33486,-1.07538 -0.48703,-1.35375 -0.41138,-1.82708 0.1633,-2.07739 0.0646,-0.063 0.1671,-0.0915 0.29042,-0.10129 0.1662,-0.0476 0.35461,-0.0901 0.57051,-0.13591 0.26199,-0.0961 0.53381,-0.14874 0.80925,-0.18293 0.16827,-0.19955 0.36238,-0.3849 0.56586,-0.55552 -0.97908,0.49026 -2.28898,0.72216 -3.29127,0.96583 -0.48757,0.008 -0.98723,0.13139 -1.46296,0.0243 -0.0162,-0.004 -0.0319,-0.007 -0.0481,-0.0109 -0.17628,0.0445 -0.3521,0.0901 -0.52968,0.12919 -0.78495,0.17292 -2.99795,0.12147 -3.59462,0.12247 -0.382,-0.0613 -0.76361,-0.12277 -1.14566,-0.18396 -0.35543,-0.0569 -0.83941,0.10919 -1.0666,-0.17002 -0.0189,-0.0232 -0.0346,-0.0484 -0.0527,-0.0724 -0.61027,0.0789 -1.16282,-0.0719 -0.63666,-1.3224 -0.0333,-0.11143 -0.062,-0.22376 -0.0899,-0.33641 -0.65137,-0.0395 -1.30303,-0.0814 -1.95544,-0.0816 -0.34697,-2e-4 -0.69112,0.0633 -1.03663,0.0951 -0.46765,0.0456 -0.93479,0.0978 -1.40302,0.13695 -1.34393,0.11236 -1.93774,0.37409 -2.28048,-1.66192 -0.30416,-0.0374 -0.60641,-0.0837 -0.90382,-0.15606 -1.03722,-0.2522 -2.24771,-0.28321 -3.04477,-0.99322 -0.0892,-0.0795 -0.15258,-0.15882 -0.20567,-0.23771 -0.33296,-0.0391 -0.65201,-0.11735 -0.90176,-0.27027 -0.0843,0.0211 -0.16804,0.0442 -0.25166,0.0677 -0.34383,0.82631 -0.97071,0.84612 -1.91668,0.83664 -0.12674,-0.33214 -0.31305,-0.65277 -0.47232,-0.97875 -0.44844,-0.3093 -1.02834,-0.79534 -0.5762,-1.387 0.66708,-0.87293 2.16878,-1.26159 3.23857,-1.38389 0.63113,-0.0722 1.21001,-0.11966 1.77973,-0.1602 -0.18129,0.005 -0.36286,0.007 -0.54415,0.004 -0.29917,-0.005 -2.10938,-0.20061 -2.86908,-0.28319 z m 5.63738,0.0713 c -0.2883,0.0454 -0.57508,0.10126 -0.86558,0.12713 0.2695,-0.0137 0.54962,-0.0282 0.82837,-0.0413 0.0123,-0.0285 0.0237,-0.0574 0.0372,-0.0858 z m -46.939251,0.004 c -0.346572,0.0742 -0.693137,0.14861 -1.039731,0.22272 0.407861,0.61251 0.749824,1.29789 0.856279,2.02159 0.03197,0.21738 -0.376565,0.23389 -0.584461,0.30489 -0.104551,0.0357 -0.220676,0.064 -0.341064,0.0894 0.929362,0.005 1.683668,0.002 1.900661,-0.0207 1.857851,-0.19189 3.699184,-0.52976 5.51439,-0.97565 -0.142746,-0.0281 -0.289595,-0.0583 -0.451133,-0.0956 -0.44922,-0.10361 -1.67522,-0.73932 -2.331641,-1.11569 -1.162137,-0.0616 -2.336919,-0.10909 -3.460771,-0.41445 -0.01953,-0.005 -0.04263,-0.0113 -0.06253,-0.0165 z m 41.452251,1.08779 c -0.0364,-0.006 -0.0753,-0.006 -0.11783,5.3e-4 0.0546,0.0197 0.0988,0.0356 0.14935,0.0532 0.0233,-0.008 0.0469,-0.0144 0.0703,-0.0217 -0.0316,-0.0149 -0.0654,-0.0264 -0.1018,-0.032 z m 0.23047,2.53783 c -0.052,0.0228 -0.10508,0.0425 -0.15658,0.0667 -0.0487,0.0229 0.16156,0.0678 0.16072,0.014 -5.3e-4,-0.027 -0.003,-0.0537 -0.004,-0.0806 z m 4.1522,0.15606 c -0.008,0.003 -0.0151,0.007 -0.0227,0.0103 0.0149,0.21495 0.0155,0.14023 0.0227,-0.0103 z m -80.733566,2.10478 c -0.02241,-0.003 -0.03576,-0.002 -0.02119,0.003 0.04872,0.0155 0.01961,0.007 0.05633,0.0186 0.01381,-5.3e-4 0.02753,-0.002 0.04134,-0.003 -0.02257,-0.009 -0.05407,-0.0143 -0.07648,-0.017 z m 84.551936,0.12609 c -0.042,0.0184 -0.0843,0.0361 -0.12609,0.0548 -0.0442,0.0197 0.12613,0.11818 0.12713,0.0698 0.001,-0.0414 -5.3e-4,-0.0831 -0.001,-0.12454 z m 21.80746,2.93729 c -0.14015,0.017 -0.2905,0.034 -0.41806,0.0512 -0.0238,0.0141 -0.0474,0.0284 -0.0713,0.0424 0.14509,0.0303 0.29032,0.0603 0.43615,0.0858 0.0269,-0.004 0.0604,-0.008 0.0873,-0.0119 -0.0152,-0.0551 -0.0234,-0.11126 -0.0341,-0.16743 z m -117.536491,0.0615 v 0.51366 c 0.129979,-0.17049 0.274476,-0.32973 0.381889,-0.44235 -0.127016,-0.0248 -0.254659,-0.0474 -0.381889,-0.0713 z m 0,1.71721 v 0.008 c 0.0016,-5.3e-4 0.0026,-0.001 0.0041,-0.002 -0.0016,-0.002 -0.0026,-0.004 -0.0041,-0.006 z" />
    </clipPath>
    <clipPath
       clipPathUnits="userSpaceOnUse"
       id="clipPath2104-0">
      <path
         id="path2106-6"
         style="fill:#ff0000;fill-opacity:1;fill-rule:nonzero;stroke:none;stroke-width:0.264583"
         d="m 30.416749,194.21915 v 11.66337 c 0.165883,-0.009 0.357399,-0.005 0.64027,0.004 0.611037,-0.0264 1.18944,0.23192 1.784903,0.3054 0.11629,0.0144 0.611891,0.0299 0.958599,0.0289 0.251142,-0.22815 0.499046,-0.45968 0.741555,-0.69504 0.445569,-0.66693 1.200828,-0.77709 1.834515,-1.09968 0.215117,-0.36823 0.631728,-0.70436 0.809771,-0.87126 1.064218,-0.64976 1.131038,-0.78635 2.581235,-1.09244 0.363771,-0.0768 0.737008,-0.0904 1.109493,-0.10852 -0.02347,-0.0364 -0.04934,-0.0714 -0.06718,-0.11059 -0.235157,-0.0824 -0.469998,-0.16422 -0.706935,-0.22428 -0.09009,-0.0228 -0.190214,-0.0419 -0.28887,-0.0615 -0.531317,0.096 -1.057915,0.18026 -1.376661,-0.17674 -0.0075,-0.008 -0.01254,-0.0178 -0.01963,-0.0263 -0.01259,-0.002 -0.02841,-0.004 -0.04082,-0.005 0.0029,-0.0129 0.004,-0.0268 0.0067,-0.0398 -0.440076,-0.60649 0.04412,-1.56892 0.03979,-2.34301 0.172929,0.008 0.34748,0.0253 0.521931,0.0439 0.439121,-0.35865 1.184206,0.0564 1.769401,0.0661 0.968851,0.016 1.937451,0.0229 2.906284,0.0258 0.06588,-0.0429 0.130889,-0.087 0.196887,-0.12971 -0.373423,-0.13552 -0.723231,-0.34847 -1.077971,-0.54208 -0.150286,0.008 -0.300715,0.0134 -0.451136,0.0176 -0.823822,0.0229 -2.383705,0.20844 -2.912999,-0.77567 -0.283665,-0.52741 0.106876,-1.19307 0.160195,-1.78955 0.395766,-0.29817 0.738462,-0.68394 1.187008,-0.89452 2.209739,-1.03738 2.953885,-0.91722 5.377966,-1.06402 0.627671,-0.038 1.255339,-0.0726 1.88309,-0.1049 z m 110.224281,0 c -0.0194,0.0588 -0.0396,0.11688 -0.0589,0.1757 0.0605,-0.0109 0.12162,-0.0183 0.1819,-0.0305 0.0729,-0.0147 -0.0607,0.0316 -0.18706,0.047 -0.0204,0.0624 -0.0421,0.12397 -0.0625,0.18655 0.28742,0.8224 0.59644,1.8069 -0.032,1.7787 -0.0824,-0.004 -0.16461,-0.007 -0.24701,-0.0103 -0.20165,-0.004 -0.64368,-0.0159 -0.83561,-0.0109 -0.32202,0.009 -0.64259,0.10345 -0.96377,0.10645 -0.21693,0.002 -0.43306,-0.0272 -0.64957,-0.0408 -0.27524,-0.0658 -0.63552,-0.15671 -0.97359,-0.29818 -0.38074,0.0971 -0.76442,0.18305 -1.14824,0.26769 0.3235,0.0388 1.87573,0.15674 2.21226,0.6227 0.0207,0.0287 0.0374,0.06 0.0568,0.0894 0.56299,-0.004 1.12581,-0.007 1.68878,-0.0124 0.67586,-0.006 1.35196,-0.0111 2.02778,-0.0186 0.45464,-0.11556 0.91034,-0.22868 1.35548,-0.34003 1.59844,-0.1627 2.16358,-0.26969 1.57096,1.21285 0.002,0.004 0.005,0.009 0.007,0.0134 0.1229,-0.006 0.24677,-0.01 0.37052,-0.0134 0.49653,-0.0862 1.0178,-0.17769 1.63659,-0.28474 0.83345,-0.16628 1.6687,-0.32485 2.50062,-0.49868 0.39031,-0.0815 0.77585,-0.18398 1.16582,-0.26716 0.0943,-0.0201 0.27359,-0.13784 0.28629,-0.0424 0.0348,0.26185 0.049,0.36829 0.0786,0.57567 1.31926,-0.11686 2.58223,-0.22693 4.31498,-0.37775 1.70174,-0.10769 3.38984,-0.32532 5.07514,-0.56586 v -2.26446 z m -0.0641,0.19224 c 0.002,-0.006 0.003,-0.011 0.005,-0.0165 -0.0196,0.004 -0.0393,0.006 -0.0589,0.01 -0.001,0.004 -0.002,0.008 -0.003,0.0124 0.0183,-2.6e-4 0.0374,-0.003 0.0568,-0.006 z m -99.343807,3.49436 c -0.0549,0.0711 -0.10894,0.14326 -0.1695,0.2067 0.134511,-0.023 0.243242,-0.0497 0.341064,-0.0775 -0.05797,-0.0428 -0.116094,-0.0852 -0.171564,-0.12919 z m 25.220681,0.14211 c -0.09211,0.0125 -0.184383,0.0246 -0.276468,0.0372 -0.136163,0.0319 -0.273862,0.063 -0.409276,0.0951 -0.201713,0.11732 -0.406316,0.2605 -0.619086,0.44287 -0.02625,0.0225 -0.02143,0.0396 0.0021,0.0522 0.285586,-0.10092 0.566161,-0.19599 0.849561,-0.28474 0.151257,-0.11551 0.299101,-0.23731 0.453202,-0.34261 z m 43.309496,0.091 c 0.0364,0.0501 0.0764,0.10453 0.11007,0.15193 0.009,-0.0283 0.0163,-0.0544 0.0269,-0.0837 -0.0461,-0.0219 -0.0912,-0.0454 -0.13694,-0.0682 z m -45.993053,0.5271 c -0.608995,0.15108 -1.224812,0.30577 -1.83968,0.46044 0.02429,0.0556 0.04947,0.11091 0.07183,0.16743 0.03697,0.0935 -0.150471,0.14238 -0.245462,0.17518 -0.01021,0.004 -0.01979,0.006 -0.02997,0.009 l 0.398426,-5.3e-4 c 0.264022,-2.6e-4 0.496752,0.0305 0.701765,0.0832 0.02072,-0.0176 0.04317,-0.0337 0.06356,-0.0517 0.511884,-0.18879 0.909275,-0.33828 1.307928,-0.48679 -0.151694,-0.11047 -0.295214,-0.2289 -0.428397,-0.35657 z m 25.555548,0.2005 c 0.0042,0.0216 0.0055,0.0427 0.0088,0.0641 0.0516,-0.0115 0.106437,-0.0226 0.152445,-0.0346 -0.05377,-0.01 -0.107526,-0.0192 -0.161229,-0.0295 z m 5.324221,0.0496 c -0.206176,0.0515 -0.450559,0.10233 -0.715719,0.15245 -0.766887,0.75076 -1.899089,1.39076 -2.128552,1.5353 -0.08,0.0355 -0.15908,0.0733 -0.238744,0.10956 7.94e-4,2.6e-4 0.0019,7.9e-4 0.0026,0.001 1.664975,0.17173 3.697981,0.48245 5.41414,0.33124 2.012582,-0.17733 3.986189,-0.58864 5.934519,-1.10381 -0.25582,-0.004 -0.51157,-0.009 -0.7674,-0.0114 -0.58203,-0.007 -1.16408,-0.009 -1.74614,-0.008 -0.12783,1.7e-4 -0.25561,0.003 -0.38344,0.004 -0.02196,0.0123 -0.04564,0.0228 -0.06718,0.0357 -0.346856,-0.001 -0.571008,0.01 -0.719336,-0.0191 -0.07793,0.0157 -0.191484,0.0706 -0.187068,0.006 0.0027,-0.0399 0.0024,-0.0658 0.0047,-0.10439 -0.09196,-0.11518 -0.101317,-0.3444 -0.104386,-0.79013 -0.483163,-0.005 -1.937893,-0.0444 -2.289265,-0.0537 -0.670197,-0.0185 -1.339535,-0.0491 -2.008663,-0.0842 z m -3.556889,0.48266 c -0.06604,0.008 -0.16759,0.0203 -0.259416,0.0326 0.04955,0.13255 0.142658,0.0981 0.259416,-0.0326 z m 20.458183,0.0284 c -0.0544,0.0813 -0.0919,0.22424 -0.0703,0.16485 0.0203,-0.0558 0.0466,-0.11001 0.0703,-0.16485 z m 6.24303,0.0656 c -1.8659,0.12133 -3.71197,0.29758 -5.55883,0.59428 -0.26933,0.0183 -0.54695,0.12254 -0.80823,0.0548 -0.41273,-0.10706 -0.76313,-0.21404 -1.03714,-0.35089 -0.11198,0.17297 -0.3358,0.31875 -0.68058,0.47439 -0.45168,0.2039 -0.92058,0.36756 -1.38079,0.55139 -3.71149,1.18099 -7.46097,2.29501 -11.366232,2.61121 -2.145914,0.17374 -4.161248,-0.23134 -6.287474,-0.50488 -0.843341,-0.35125 -1.546529,-0.61197 -2.205032,-0.93224 -0.759923,0.27913 -1.524172,0.54581 -2.298052,0.78238 -2.56427,0.78388 -6.38574,1.54166 -8.883179,1.79627 -0.821854,0.0837 -8.236437,-0.0724 -8.333856,-0.0744 -1.101275,-0.0757 -2.203593,-0.13814 -3.305225,-0.20877 -4.688705,1.02234 -1.59198,0.27901 -6.101438,1.18649 -1.275265,0.25663 -2.544434,0.54126 -3.816821,0.81183 -2.533517,0.69871 -5.143973,1.00265 -7.742679,1.33326 -0.826574,0.10514 -1.652291,0.21761 -2.477884,0.33021 -0.503949,0.0687 -1.002487,0.18934 -1.510503,0.21394 -0.562766,0.0273 -1.12622,-0.0392 -1.689301,-0.0589 -0.03317,-0.007 -0.06653,-0.0144 -0.09974,-0.0217 -0.565457,0.37278 -1.108781,0.76965 -1.71514,1.09296 -0.944568,0.50363 -2.023758,0.85323 -2.977078,1.35444 -0.269521,0.13225 -0.55934,0.22974 -0.808736,0.39687 -1.40534,0.94178 0.59269,0.11103 -1.53841,1.1219 -0.282977,0.13423 -0.589237,0.21786 -0.895551,0.28319 -1.539226,0.32821 -1.562102,0.25476 -3.056144,0.25476 l 0.0011,5.3e-4 c -0.310944,0 -0.575667,-0.0459 -0.804601,-0.11886 v 19.67167 H 160.01196 v -18.12034 c -0.15405,0.0117 -0.32789,0.0175 -0.59944,0.0289 -1.00911,0.0229 -1.99759,0.0352 -3.00499,-0.0599 -0.73997,-0.0698 -0.68227,-0.15998 -1.46709,-0.19378 -0.17956,-0.008 -0.35859,0.0228 -0.53795,0.0341 -0.82776,0.008 -1.57007,0.0735 -2.08256,-0.46508 -0.10461,-0.005 -0.20898,-0.0126 -0.31368,-0.0176 -1.71114,-0.0808 -0.69684,0.0404 -2.75591,-0.108 -0.36631,-0.0265 -0.72987,-0.0784 -1.09502,-0.11783 -0.55803,-0.19975 -1.13906,-0.34488 -1.67431,-0.59944 -0.0648,-0.0308 -0.11581,-0.0811 -0.1633,-0.13591 -0.87243,-0.0227 -1.74387,-0.0658 -2.6138,-0.14263 -0.0584,-0.004 -2.21615,-0.11093 -2.29185,-0.16433 -0.43133,-0.30433 -1.08537,-0.61989 -1.09037,-1.14774 -0.005,-0.55315 0.12754,-0.87814 0.33486,-1.07538 -0.48703,-1.35375 -0.41138,-1.82708 0.1633,-2.07739 0.0646,-0.063 0.1671,-0.0915 0.29042,-0.10129 0.1662,-0.0476 0.35461,-0.0901 0.57051,-0.13591 0.26199,-0.0961 0.53381,-0.14874 0.80925,-0.18293 0.16827,-0.19955 0.36238,-0.3849 0.56586,-0.55552 -0.97908,0.49026 -2.28898,0.72216 -3.29127,0.96583 -0.48757,0.008 -0.98723,0.13139 -1.46296,0.0243 -0.0162,-0.004 -0.0319,-0.007 -0.0481,-0.0109 -0.17628,0.0445 -0.3521,0.0901 -0.52968,0.12919 -0.78495,0.17292 -2.99795,0.12147 -3.59462,0.12247 -0.382,-0.0613 -0.76361,-0.12277 -1.14566,-0.18396 -0.35543,-0.0569 -0.83941,0.10919 -1.0666,-0.17002 -0.0189,-0.0232 -0.0346,-0.0484 -0.0527,-0.0724 -0.61027,0.0789 -1.16282,-0.0719 -0.63666,-1.3224 -0.0333,-0.11143 -0.062,-0.22376 -0.0899,-0.33641 -0.65137,-0.0395 -1.30303,-0.0814 -1.95544,-0.0816 -0.34697,-2e-4 -0.69112,0.0633 -1.03663,0.0951 -0.46765,0.0456 -0.93479,0.0978 -1.40302,0.13695 -1.34393,0.11236 -1.93774,0.37409 -2.28048,-1.66192 -0.30416,-0.0374 -0.60641,-0.0837 -0.90382,-0.15606 -1.03722,-0.2522 -2.24771,-0.28321 -3.04477,-0.99322 -0.0892,-0.0795 -0.15258,-0.15882 -0.20567,-0.23771 -0.33296,-0.0391 -0.65201,-0.11735 -0.90176,-0.27027 -0.0843,0.0211 -0.16804,0.0442 -0.25166,0.0677 -0.34383,0.82631 -0.97071,0.84612 -1.91668,0.83664 -0.12674,-0.33214 -0.31305,-0.65277 -0.47232,-0.97875 -0.44844,-0.3093 -1.02834,-0.79534 -0.5762,-1.387 0.66708,-0.87293 2.16878,-1.26159 3.23857,-1.38389 0.63113,-0.0722 1.21001,-0.11966 1.77973,-0.1602 -0.18129,0.005 -0.36286,0.007 -0.54415,0.004 -0.29917,-0.005 -2.10938,-0.20061 -2.86908,-0.28319 z m 5.63738,0.0713 c -0.2883,0.0454 -0.57508,0.10126 -0.86558,0.12713 0.2695,-0.0137 0.54962,-0.0282 0.82837,-0.0413 0.0123,-0.0285 0.0237,-0.0574 0.0372,-0.0858 z m -46.939251,0.004 c -0.346572,0.0742 -0.693137,0.14861 -1.039731,0.22272 0.407861,0.61251 0.749824,1.29789 0.856279,2.02159 0.03197,0.21738 -0.376565,0.23389 -0.584461,0.30489 -0.104551,0.0357 -0.220676,0.064 -0.341064,0.0894 0.929362,0.005 1.683668,0.002 1.900661,-0.0207 1.857851,-0.19189 3.699184,-0.52976 5.51439,-0.97565 -0.142746,-0.0281 -0.289595,-0.0583 -0.451133,-0.0956 -0.44922,-0.10361 -1.67522,-0.73932 -2.331641,-1.11569 -1.162137,-0.0616 -2.336919,-0.10909 -3.460771,-0.41445 -0.01953,-0.005 -0.04263,-0.0113 -0.06253,-0.0165 z m 41.452251,1.08779 c -0.0364,-0.006 -0.0753,-0.006 -0.11783,5.3e-4 0.0546,0.0197 0.0988,0.0356 0.14935,0.0532 0.0233,-0.008 0.0469,-0.0144 0.0703,-0.0217 -0.0316,-0.0149 -0.0654,-0.0264 -0.1018,-0.032 z m 0.23047,2.53783 c -0.052,0.0228 -0.10508,0.0425 -0.15658,0.0667 -0.0487,0.0229 0.16156,0.0678 0.16072,0.014 -5.3e-4,-0.027 -0.003,-0.0537 -0.004,-0.0806 z m 4.1522,0.15606 c -0.008,0.003 -0.0151,0.007 -0.0227,0.0103 0.0149,0.21495 0.0155,0.14023 0.0227,-0.0103 z m -80.733566,2.10478 c -0.02241,-0.003 -0.03576,-0.002 -0.02119,0.003 0.04872,0.0155 0.01961,0.007 0.05633,0.0186 0.01381,-5.3e-4 0.02753,-0.002 0.04134,-0.003 -0.02257,-0.009 -0.05407,-0.0143 -0.07648,-0.017 z m 84.551936,0.12609 c -0.042,0.0184 -0.0843,0.0361 -0.12609,0.0548 -0.0442,0.0197 0.12613,0.11818 0.12713,0.0698 0.001,-0.0414 -5.3e-4,-0.0831 -0.001,-0.12454 z m 21.80746,2.93729 c -0.14015,0.017 -0.2905,0.034 -0.41806,0.0512 -0.0238,0.0141 -0.0474,0.0284 -0.0713,0.0424 0.14509,0.0303 0.29032,0.0603 0.43615,0.0858 0.0269,-0.004 0.0604,-0.008 0.0873,-0.0119 -0.0152,-0.0551 -0.0234,-0.11126 -0.0341,-0.16743 z m -117.536491,0.0615 v 0.51366 c 0.129979,-0.17049 0.274476,-0.32973 0.381889,-0.44235 -0.127016,-0.0248 -0.254659,-0.0474 -0.381889,-0.0713 z m 0,1.71721 v 0.008 c 0.0016,-5.3e-4 0.0026,-0.001 0.0041,-0.002 -0.0016,-0.002 -0.0026,-0.004 -0.0041,-0.006 z" />
    </clipPath>
    <clipPath
       clipPathUnits="userSpaceOnUse"
       id="clipPath2329">
      <path
         id="path2331"
         style="fill:#ff0000;fill-opacity:1;fill-rule:nonzero;stroke:none;stroke-width:0.264583"
         d="m 137.73267,239.04587 c -0.0463,0.10899 -0.0878,0.22329 -0.12453,0.34262 0.0529,-0.005 0.10577,-0.0102 0.15864,-0.0155 v -0.32711 z m -52.256751,4.81521 c -1.075632,0.21176 -2.151116,0.42439 -3.226676,0.63666 0.05796,0.0502 0.113281,0.10865 0.170016,0.16278 0.120081,-0.0281 0.15898,-0.0372 0.294555,-0.0687 0.304663,-0.0709 0.587457,-0.10588 0.846976,-0.11059 0.166579,-0.003 0.323115,0.007 0.470258,0.0274 0.483518,-0.21035 0.965226,-0.42604 1.444871,-0.64751 z m -4.978506,0.98185 c -0.06598,0.0131 -0.131943,0.0262 -0.197922,0.0393 -0.01386,0.0859 -0.03971,0.16888 -0.0708,0.25011 0.104071,-0.0402 0.208121,-0.0805 0.312642,-0.11937 -0.02056,-0.0779 -0.0275,-0.10618 -0.04392,-0.17002 z m 9.142076,0.86403 c -1.27686,0.57465 -2.780659,1.25359 -4.751131,2.10427 -0.190039,0.17339 -0.391654,0.33777 -0.596863,0.49919 3.236434,-0.18442 6.473489,-0.35962 9.709486,-0.55035 -0.997579,-0.1125 -1.793835,-0.29387 -2.259811,-0.56948 -0.253593,-0.14998 -0.398627,-0.36876 -0.477491,-0.6289 -0.549889,-0.2537 -1.099979,-0.53854 -1.62419,-0.85473 z m -48.757747,0.62942 c -0.615675,0.0368 -1.210006,0.072 -1.628841,0.093 -0.571458,0.0286 -1.89103,0.0848 -3.4432,0.13126 v 0.99063 c 0.206634,-0.011 0.413654,-0.0242 0.620117,-0.0336 2.031645,-0.0923 3.245577,-0.14477 4.351673,-0.19172 -0.05466,-0.11696 -0.103846,-0.23729 -0.141078,-0.36432 -0.07327,-0.25 0.03794,-0.45339 0.241329,-0.62529 z m 24.769032,3.34398 c -4.005821,0.21803 -8.015674,0.36943 -12.026656,0.49145 -0.583248,0.11122 -1.072291,0.20222 -1.789555,0.34055 -0.435456,0.11354 -0.870074,0.22953 -1.30638,0.34054 -0.03029,0.008 -0.06066,0.0164 -0.09095,0.0243 2.931441,-0.21378 5.862564,-0.4286 8.792745,-0.65887 2.141048,-0.16827 4.281093,-0.35266 6.420797,-0.53796 z m -25.971542,1.06816 c -0.954699,0.0417 -1.622941,0.0692 -3.05511,0.13435 -0.271237,0.0123 -0.542935,0.0292 -0.814421,0.0439 v 1.05523 c 1.286666,-0.10065 2.516171,-0.1967 4.283458,-0.33279 -0.186589,-0.28453 -0.331658,-0.59628 -0.413927,-0.90072 z m 40.336038,2.40605 c -0.507513,0.0536 -1.015298,0.10347 -1.522904,0.15606 1.628656,0.58311 1.649349,2.32957 0.03101,2.95331 0.250939,0.90102 -0.477665,1.98816 -2.2934,2.13992 -0.549574,0.0459 -1.09751,0.13598 -1.648994,0.13798 -4.215628,0.0185 -8.276921,-0.80239 -12.481926,-0.97927 -1.988574,0.0483 -3.978232,0.0591 -5.965528,0.14521 -4.185635,0.18142 -9.648667,0.59006 -13.835849,0.96325 -0.483944,0.0431 -0.967877,0.088 -1.451588,0.13384 1.134887,0.0688 2.27076,0.11259 3.40496,0.06 1.529379,-0.071 3.0325,-0.4267 4.548557,-0.64027 3.303924,-0.46542 4.057703,2.47559 0.817005,3.26956 -3.061224,0.75001 -6.133934,0.80852 -9.210289,0.63097 -0.155387,0.82448 -1.134745,1.56808 -2.790529,1.41335 -0.602559,-0.0563 -1.204007,-0.12847 -1.80609,-0.19172 v 21.37028 H 137.76678 v -21.26951 c -1.66707,-0.044 -3.33398,-0.11118 -4.99711,-0.22892 -1.44519,-0.10231 -2.87653,-0.34995 -4.31757,-0.49972 -0.68563,-0.0713 -1.37419,-0.10879 -2.06137,-0.16329 -1.7591,-0.13957 -2.5871,-1.14363 -2.48564,-2.0221 h -0.21083 c -1.18458,0 -1.94633,-0.4255 -2.28979,-0.97359 -4.06814,-0.0586 -8.13676,-0.13734 -12.2039,-0.0754 -3.14207,0.0479 -4.46015,0.1668 -7.28999,0.36432 -2.19022,-0.22647 -4.399107,0.0747 -6.589267,-0.0259 -1.507215,-0.0686 -4.756769,-0.49225 -6.311241,-0.62787 -0.309811,-0.027 -0.620316,-0.0456 -0.930693,-0.0651 -1.168109,0.21329 -2.407285,0.5773 -3.216341,-0.14728 -0.0071,-0.006 -0.01259,-0.0123 -0.01963,-0.0186 -0.382498,-0.0844 -0.658122,-0.26048 -0.641821,-0.62167 -2.673956,-2.82232 1.052274,-2.73448 2.184879,-2.68614 0.716409,-0.34308 1.743702,0.0248 2.581754,-0.0145 0.144139,-0.007 0.288385,-0.0115 0.432532,-0.0181 -0.0698,-0.0731 -0.119147,-0.28305 -0.137459,-0.68213 -0.0016,-0.0329 -0.003,-0.0658 -0.0047,-0.0987 -0.02905,-0.001 -0.06047,-0.002 -0.0894,-0.003 -0.828122,-0.0422 -6.391802,0.16991 -9.153965,-1.68516 z m 27.30014,0.62787 c -5.78978,0.72145 -12.351279,1.25857 -17.376198,1.08521 -0.14401,0.36802 -0.28235,0.65364 -0.395841,0.74982 2.405431,-0.1091 4.811882,-0.19714 7.21868,-0.26975 19.989319,-0.60228 4.764429,-0.0239 16.082739,-0.47491 -1.85247,-0.29064 -3.68886,-0.70601 -5.52938,-1.09037 z" />
    </clipPath>
    <clipPath
       clipPathUnits="userSpaceOnUse"
       id="clipPath2377">
      <path
         id="path2379"
         style="fill:#ff0000;fill-opacity:1;fill-rule:nonzero;stroke:none;stroke-width:0.264582"
         d="M 30.416874,232.13865 H 160.01183 V 215.6571 c -1.31785,0.20657 -3.51608,0.76738 -4.43347,0.10107 -0.96354,-0.6999 -1.17951,-1.25148 -1.16597,-1.93137 -0.003,2.2e-4 -0.007,8.5e-4 -0.0101,0.001 -0.82769,0.008 -1.56977,0.0736 -2.08225,-0.46503 -0.10462,-0.005 -0.20889,-0.0127 -0.31359,-0.0177 -1.71115,-0.0808 -0.69696,0.0401 -2.75602,-0.10825 -0.36631,-0.0265 -0.72976,-0.0782 -1.09491,-0.11764 -0.55804,-0.19975 -1.1393,-0.34468 -1.67457,-0.59924 -0.0648,-0.0308 -0.11578,-0.0811 -0.16326,-0.13587 -0.87244,-0.0227 -1.74393,-0.0662 -2.61388,-0.14304 -0.0584,-0.004 -2.21594,-0.11063 -2.29164,-0.16403 -0.43133,-0.30432 -1.0856,-0.61982 -1.0906,-1.14767 -0.005,-0.55315 0.12788,-0.87807 0.3352,-1.07531 -0.48703,-1.35375 -0.4114,-1.82742 0.16328,-2.07773 0.0646,-0.063 0.16674,-0.0913 0.29006,-0.10107 0.1662,-0.0476 0.35462,-0.0901 0.5705,-0.13586 0.26201,-0.0961 0.53375,-0.14918 0.80918,-0.18337 0.16828,-0.19954 0.36272,-0.38443 0.56621,-0.55505 -0.97911,0.49026 -2.28919,0.72174 -3.29149,0.96541 -0.48756,0.008 -0.98704,0.13139 -1.46277,0.0243 -0.0162,-0.004 -0.0318,-0.007 -0.048,-0.0105 -0.17628,0.0445 -0.35211,0.0901 -0.52969,0.12923 -0.78495,0.17292 -2.99831,0.12107 -3.59498,0.12206 -0.382,-0.0613 -0.76329,-0.12272 -1.14534,-0.18391 -0.35543,-0.0569 -0.83939,0.10911 -1.06658,-0.17011 -0.0189,-0.0232 -0.0347,-0.0481 -0.0528,-0.0724 -0.61026,0.0789 -1.16294,-0.0717 -0.63678,-1.32219 -0.0333,-0.11143 -0.0619,-0.2237 -0.0898,-0.33635 -0.65137,-0.0395 -1.30308,-0.0815 -1.95549,-0.0817 -0.34697,-2e-4 -0.69081,0.0632 -1.03632,0.095 -0.46767,0.0456 -0.935,0.0978 -1.40323,0.13697 -1.34393,0.11236 -1.93785,0.37416 -2.28059,-1.66186 -0.30416,-0.0374 -0.60638,-0.0839 -0.90379,-0.15629 -1.03722,-0.2522 -2.24758,-0.28302 -3.04464,-0.99303 -0.0892,-0.0795 -0.15245,-0.15859 -0.20554,-0.23748 -0.33296,-0.0391 -0.65211,-0.11771 -0.90186,-0.27063 -0.0843,0.0211 -0.16802,0.0444 -0.25164,0.0679 -0.34383,0.82631 -0.97062,0.84621 -1.91659,0.83673 -0.12674,-0.33214 -0.31327,-0.6527 -0.47254,-0.97866 -0.44844,-0.30931 -1.02841,-0.79571 -0.57627,-1.38737 0.66709,-0.87293 2.16886,-1.26119 3.23865,-1.38349 0.63113,-0.0722 1.21,-0.11963 1.77972,-0.16017 -0.18129,0.005 -0.36281,0.007 -0.5441,0.004 -0.29917,-0.005 -2.10965,-0.20074 -2.86935,-0.28333 v -5.7e-4 c -1.8659,0.12133 -3.71177,0.29757 -5.55863,0.59427 -0.26933,0.0183 -0.54693,0.12303 -0.80822,0.0552 -0.41273,-0.10706 -0.76328,-0.21441 -1.03729,-0.35126 -0.11198,0.17297 -0.3357,0.31878 -0.68048,0.47442 -0.45169,0.2039 -0.92044,0.36736 -1.38065,0.55119 -3.71149,1.18099 -7.46123,2.29506 -11.366489,2.61124 -2.145918,0.17376 -4.160904,-0.23125 -6.28713,-0.50479 -0.84334,-0.35125 -1.546698,-0.612 -2.205201,-0.93227 -0.759922,0.27913 -1.524004,0.54603 -2.297884,0.7826 -2.564269,0.78388 -6.385796,1.54145 -8.883236,1.79606 -0.821853,0.0837 -8.236436,-0.072 -8.333855,-0.074 -1.101274,-0.0757 -2.203767,-0.13814 -3.3054,-0.20877 -4.688705,1.02234 -1.591822,0.27885 -6.101281,1.18633 -1.275265,0.25663 -2.544456,0.5413 -3.816842,0.81187 -2.533518,0.6987 -5.143989,1.00263 -7.742695,1.33324 -0.826574,0.10514 -1.652379,0.21767 -2.477971,0.33027 -0.503948,0.0687 -1.0023,0.18914 -1.510312,0.21374 -0.562766,0.0273 -1.126358,-0.0394 -1.689439,-0.0591 -0.03317,-0.007 -0.06668,-0.0142 -0.09989,-0.0215 -0.565456,0.37278 -1.10853,0.76968 -1.71489,1.09299 -0.944567,0.50363 -2.024086,0.85357 -2.977405,1.35478 -0.269522,0.13225 -0.559306,0.22941 -0.808703,0.39655 -1.172962,0.78605 -0.0031,0.3498 -0.813983,0.76768 0.797907,0.51297 0.801768,1.3974 -0.765002,3.37838 -0.220467,0.27874 -0.65493,0.0354 -0.982543,0.0309 -0.100533,-8.5e-4 -0.171119,-0.005 -0.258364,-0.008 -0.195983,0.76667 -0.947621,1.50853 -2.258025,1.68615 -0.404995,0.0549 -0.81012,0.10523 -1.215454,0.15299 z m 0,-23.04556 c 0.12998,-0.17049 0.274369,-0.32976 0.381782,-0.44238 -0.127017,-0.0248 -0.254551,-0.0473 -0.381782,-0.0712 z m 0,-3.21048 c 0.165883,-0.009 0.357273,-0.005 0.640144,0.004 0.611034,-0.0264 1.189538,0.23194 1.785001,0.30542 0.11629,0.0144 0.611826,0.0297 0.958533,0.0287 0.251143,-0.22815 0.498967,-0.45942 0.741469,-0.69478 0.445574,-0.66693 1.20078,-0.77703 1.834467,-1.09962 0.215117,-0.36823 0.631619,-0.70462 0.809663,-0.87152 1.064218,-0.64976 1.131022,-0.78634 2.581219,-1.09244 0.363771,-0.0768 0.737319,-0.0901 1.109804,-0.10825 -0.02348,-0.0364 -0.04939,-0.0713 -0.06723,-0.11046 -0.235153,-0.0824 -0.469955,-0.16472 -0.706893,-0.22478 -0.09009,-0.0228 -0.190441,-0.0417 -0.289097,-0.0613 -0.531316,0.096 -1.057584,0.18024 -1.376328,-0.17673 -0.0075,-0.008 -0.01259,-0.018 -0.01969,-0.0265 -0.01259,-0.002 -0.02841,-0.004 -0.04082,-0.005 0.0029,-0.0129 0.004,-0.0268 0.0067,-0.0398 -0.440074,-0.60649 0.04419,-1.56874 0.03986,-2.34283 0.172935,0.008 0.347077,0.0256 0.521528,0.0442 0.43912,-0.35865 1.184444,0.056 1.769634,0.0657 0.968858,0.016 1.937502,0.023 2.906335,0.026 0.06588,-0.0429 0.130894,-0.0871 0.196892,-0.12979 -0.373424,-0.13552 -0.72337,-0.34819 -1.07811,-0.5418 -0.150284,0.008 -0.300512,0.0129 -0.450932,0.0171 -0.823822,0.0229 -2.383761,0.20869 -2.913056,-0.77542 -0.283665,-0.52741 0.106597,-1.19295 0.159915,-1.78943 0.395767,-0.29817 0.738575,-0.68413 1.187122,-0.89471 2.209738,-1.03738 2.953978,-0.91692 5.378058,-1.06372 0.627672,-0.038 1.255219,-0.0726 1.88297,-0.10494 l -17.567175,-5.6e-4 z m 10.646627,-7.77022 c 0.134512,-0.023 0.24314,-0.0495 0.340961,-0.0773 -0.05797,-0.0428 -0.115969,-0.0853 -0.171439,-0.12924 -0.0549,0.0711 -0.10896,0.14312 -0.169522,0.20656 z m 0.509042,7.34495 c 0.04872,0.0155 0.01947,0.007 0.05618,0.0188 0.01382,-5.7e-4 0.02797,-0.002 0.04178,-0.003 -0.02257,-0.009 -0.0544,-0.0139 -0.07684,-0.0166 v -0.002 c -0.0224,-0.003 -0.03572,-0.002 -0.02112,0.003 z m 20.154636,-5.97913 0.398108,-5.6e-4 c 0.264022,-2.6e-4 0.497078,0.0301 0.702092,0.0828 0.02073,-0.0176 0.043,-0.0334 0.06339,-0.0514 0.511885,-0.18879 0.909004,-0.33861 1.307658,-0.48712 -0.151694,-0.11047 -0.29518,-0.22856 -0.428363,-0.35623 -0.608996,0.15108 -1.224399,0.30594 -1.839269,0.46061 0.02429,0.0556 0.0492,0.11083 0.07156,0.16735 0.03697,0.0935 -0.150405,0.14227 -0.245397,0.17507 -0.0102,0.004 -0.0196,0.006 -0.02977,0.009 z m 3.404327,-0.82512 c 9.83e-4,0.009 0.0079,0.0158 0.01969,0.0221 0.285586,-0.10092 0.56612,-0.19568 0.849522,-0.28443 0.151145,-0.11542 0.298877,-0.23772 0.452852,-0.34297 -0.09211,0.0125 -0.184043,0.025 -0.276129,0.0375 -0.136163,0.0319 -0.273733,0.0629 -0.409155,0.095 -0.201707,0.11732 -0.406718,0.26057 -0.619492,0.44294 -0.01313,0.0113 -0.01815,0.0212 -0.01729,0.0298 z m 10.25188,3.55346 c 0.929362,0.005 1.683745,0.002 1.900738,-0.0204 1.857852,-0.19189 3.699235,-0.53001 5.514445,-0.9759 -0.142746,-0.0281 -0.289394,-0.0582 -0.450935,-0.0955 -0.44922,-0.10361 -1.675559,-0.73926 -2.331979,-1.11563 -1.162141,-0.0616 -2.336662,-0.10941 -3.460515,-0.41477 -0.01952,-0.005 -0.04301,-0.0108 -0.06291,-0.016 -0.346572,0.0742 -0.693095,0.14844 -1.039692,0.22258 0.407862,0.61248 0.74979,1.29769 0.856247,2.02139 0.03197,0.21738 -0.376542,0.23387 -0.584438,0.30487 -0.104551,0.0357 -0.220573,0.0641 -0.340961,0.0895 z m 13.942424,-3.34028 c 0.0042,0.0216 0.0051,0.0427 0.0087,0.0641 0.0516,-0.0115 0.106703,-0.0223 0.152712,-0.0342 -0.05377,-0.01 -0.107652,-0.0195 -0.161357,-0.0298 z m 1.507911,0.565 c 0.04955,0.13255 0.142566,0.0981 0.259323,-0.0326 -0.06604,0.008 -0.167496,0.0203 -0.259323,0.0326 z m 0.733308,1.28187 c 7.38e-4,2.6e-4 0.0017,8.5e-4 0.0025,10e-4 1.664974,0.17173 3.697917,0.48259 5.414076,0.33138 2.012582,-0.17733 3.986315,-0.58887 5.934645,-1.10404 -0.25582,-0.004 -0.5116,-0.009 -0.7674,-0.011 -0.58206,-0.007 -1.16405,-0.009 -1.74611,-0.008 -0.12783,1.7e-4 -0.25539,0.003 -0.38322,0.004 -0.02196,0.0123 -0.04569,0.0225 -0.06723,0.0353 -0.346855,-0.001 -0.571049,0.0103 -0.719379,-0.0188 -0.07793,0.0157 -0.191705,0.0691 -0.187289,0.006 0.0027,-0.0399 0.0025,-0.0658 0.0048,-0.10439 -0.09196,-0.11518 -0.101141,-0.34404 -0.10421,-0.78978 -0.483164,-0.005 -1.93787,-0.0443 -2.289242,-0.0536 -0.670196,-0.0185 -1.33966,-0.0494 -2.008788,-0.0845 v -5.6e-4 c -0.206176,0.0515 -0.450858,0.10231 -0.716018,0.15243 -0.766887,0.75076 -1.898901,1.39083 -2.128365,1.53537 -0.08,0.0355 -0.159008,0.0731 -0.238672,0.10936 z M 109.7633,198.1389 c 0.0364,0.0501 0.0763,0.10448 0.10997,0.15188 0.009,-0.0283 0.0163,-0.0547 0.0269,-0.084 -0.0461,-0.0219 -0.0911,-0.0451 -0.13687,-0.0679 z m 1.71777,1.45309 c 0.0203,-0.0558 0.0464,-0.1103 0.0701,-0.16514 -0.0544,0.0813 -0.0917,0.22453 -0.0701,0.16514 z m 6.34572,1.06426 c 0.0546,0.0197 0.0988,0.0354 0.14935,0.053 0.0233,-0.008 0.0472,-0.0142 0.0706,-0.0215 -0.0316,-0.0149 -0.0654,-0.0264 -0.10181,-0.032 -0.0364,-0.006 -0.0756,-0.006 -0.11813,5.7e-4 z m 0.18441,2.61291 4.9e-4,5.6e-4 c 0.008,0.0232 0.16834,0.0513 0.1676,0.004 -5e-4,-0.027 -0.003,-0.0537 -0.004,-0.0806 h -4.9e-4 c -0.052,0.0228 -0.10504,0.0426 -0.15656,0.0668 -0.006,0.003 -0.008,0.006 -0.007,0.009 z m 4.2937,0.0906 c 0.0149,0.21495 0.0154,0.14071 0.0226,-0.01 -0.008,0.003 -0.015,0.007 -0.0226,0.01 z m 0.26125,-3.66833 c 0.2695,-0.0137 0.54964,-0.0283 0.82839,-0.0414 0.0123,-0.0285 0.0235,-0.0578 0.037,-0.0862 -0.2883,0.0454 -0.57486,0.10171 -0.86536,0.12758 z m 3.4461,5.95483 c 0.003,0.0314 0.13359,0.10141 0.13447,0.0591 9.8e-4,-0.0414 -5e-4,-0.0834 -9.9e-4,-0.12481 -0.042,0.0184 -0.0845,0.036 -0.1263,0.0547 -0.006,0.003 -0.008,0.007 -0.007,0.0111 z m 9.65256,-9.25589 c 0.3235,0.0388 1.87539,0.15703 2.21192,0.62299 0.0207,0.0287 0.0377,0.0601 0.0571,0.0895 0.56299,-0.004 1.12551,-0.007 1.68848,-0.0127 0.67586,-0.006 1.35218,-0.0107 2.028,-0.0182 0.45464,-0.11555 0.91007,-0.22886 1.3552,-0.34021 1.59844,-0.1627 2.16391,-0.2697 1.5713,1.21284 0.002,0.004 0.005,0.009 0.007,0.0133 0.12289,-0.006 0.24698,-0.01 0.37073,-0.0133 0.49652,-0.0862 1.0178,-0.17793 1.6366,-0.28498 0.83345,-0.16628 1.66861,-0.32489 2.50053,-0.49873 0.39033,-0.0815 0.77604,-0.18357 1.166,-0.26675 0.0943,-0.0201 0.27351,-0.13803 0.28622,-0.0425 0.0348,0.26185 0.0487,0.36811 0.0783,0.57549 1.31927,-0.11686 2.58258,-0.22695 4.31532,-0.37777 1.70175,-0.10769 3.3907,-0.32501 5.07601,-0.56555 v -2.2644 h -19.37236 c -0.0194,0.0588 -0.0393,0.11681 -0.0586,0.17563 0.0605,-0.0109 0.12125,-0.0182 0.18153,-0.0304 0.0728,-0.0147 -0.0602,0.0315 -0.18633,0.047 h -4.9e-4 c -0.0204,0.0624 -0.0412,0.12409 -0.0615,0.18667 0.28742,0.8224 0.59537,1.80659 -0.0331,1.77839 -0.0824,-0.004 -0.16444,-0.007 -0.24684,-0.0105 -0.20165,-0.004 -0.64366,-0.0155 -0.8356,-0.0105 -0.32201,0.009 -0.64263,0.10304 -0.96381,0.10604 -0.21693,0.002 -0.43324,-0.0267 -0.64975,-0.0403 -0.27524,-0.0658 -0.63535,-0.15677 -0.97342,-0.29824 -0.38074,0.0971 -0.7644,0.18267 -1.14822,0.26731 z m 4.91224,-1.97887 c 0.002,-0.006 0.003,-0.0111 0.005,-0.0166 -0.0196,0.004 -0.039,0.006 -0.0586,0.01 -9.9e-4,0.004 -0.002,0.008 -0.003,0.0127 0.0182,-2.5e-4 0.0374,-0.003 0.0567,-0.006 z m 6.88693,14.20002 c 0.1451,0.0303 0.29021,0.0601 0.43604,0.0856 0.0269,-0.004 0.0605,-0.008 0.0874,-0.0116 -0.0152,-0.0551 -0.0234,-0.11117 -0.0341,-0.16734 v -5.6e-4 c -0.14015,0.017 -0.2907,0.0342 -0.41826,0.0514 -0.0238,0.0141 -0.0472,0.0285 -0.0711,0.0425 z" />
    </clipPath>
    <clipPath
       clipPathUnits="userSpaceOnUse"
       id="clipPath2377-0">
      <path
         id="path2379-4"
         style="fill:#ff0000;fill-opacity:1;fill-rule:nonzero;stroke:none;stroke-width:0.264582"
         d="M 30.416874,232.13865 H 160.01183 V 215.6571 c -1.31785,0.20657 -3.51608,0.76738 -4.43347,0.10107 -0.96354,-0.6999 -1.17951,-1.25148 -1.16597,-1.93137 -0.003,2.2e-4 -0.007,8.5e-4 -0.0101,0.001 -0.82769,0.008 -1.56977,0.0736 -2.08225,-0.46503 -0.10462,-0.005 -0.20889,-0.0127 -0.31359,-0.0177 -1.71115,-0.0808 -0.69696,0.0401 -2.75602,-0.10825 -0.36631,-0.0265 -0.72976,-0.0782 -1.09491,-0.11764 -0.55804,-0.19975 -1.1393,-0.34468 -1.67457,-0.59924 -0.0648,-0.0308 -0.11578,-0.0811 -0.16326,-0.13587 -0.87244,-0.0227 -1.74393,-0.0662 -2.61388,-0.14304 -0.0584,-0.004 -2.21594,-0.11063 -2.29164,-0.16403 -0.43133,-0.30432 -1.0856,-0.61982 -1.0906,-1.14767 -0.005,-0.55315 0.12788,-0.87807 0.3352,-1.07531 -0.48703,-1.35375 -0.4114,-1.82742 0.16328,-2.07773 0.0646,-0.063 0.16674,-0.0913 0.29006,-0.10107 0.1662,-0.0476 0.35462,-0.0901 0.5705,-0.13586 0.26201,-0.0961 0.53375,-0.14918 0.80918,-0.18337 0.16828,-0.19954 0.36272,-0.38443 0.56621,-0.55505 -0.97911,0.49026 -2.28919,0.72174 -3.29149,0.96541 -0.48756,0.008 -0.98704,0.13139 -1.46277,0.0243 -0.0162,-0.004 -0.0318,-0.007 -0.048,-0.0105 -0.17628,0.0445 -0.35211,0.0901 -0.52969,0.12923 -0.78495,0.17292 -2.99831,0.12107 -3.59498,0.12206 -0.382,-0.0613 -0.76329,-0.12272 -1.14534,-0.18391 -0.35543,-0.0569 -0.83939,0.10911 -1.06658,-0.17011 -0.0189,-0.0232 -0.0347,-0.0481 -0.0528,-0.0724 -0.61026,0.0789 -1.16294,-0.0717 -0.63678,-1.32219 -0.0333,-0.11143 -0.0619,-0.2237 -0.0898,-0.33635 -0.65137,-0.0395 -1.30308,-0.0815 -1.95549,-0.0817 -0.34697,-2e-4 -0.69081,0.0632 -1.03632,0.095 -0.46767,0.0456 -0.935,0.0978 -1.40323,0.13697 -1.34393,0.11236 -1.93785,0.37416 -2.28059,-1.66186 -0.30416,-0.0374 -0.60638,-0.0839 -0.90379,-0.15629 -1.03722,-0.2522 -2.24758,-0.28302 -3.04464,-0.99303 -0.0892,-0.0795 -0.15245,-0.15859 -0.20554,-0.23748 -0.33296,-0.0391 -0.65211,-0.11771 -0.90186,-0.27063 -0.0843,0.0211 -0.16802,0.0444 -0.25164,0.0679 -0.34383,0.82631 -0.97062,0.84621 -1.91659,0.83673 -0.12674,-0.33214 -0.31327,-0.6527 -0.47254,-0.97866 -0.44844,-0.30931 -1.02841,-0.79571 -0.57627,-1.38737 0.66709,-0.87293 2.16886,-1.26119 3.23865,-1.38349 0.63113,-0.0722 1.21,-0.11963 1.77972,-0.16017 -0.18129,0.005 -0.36281,0.007 -0.5441,0.004 -0.29917,-0.005 -2.10965,-0.20074 -2.86935,-0.28333 v -5.7e-4 c -1.8659,0.12133 -3.71177,0.29757 -5.55863,0.59427 -0.26933,0.0183 -0.54693,0.12303 -0.80822,0.0552 -0.41273,-0.10706 -0.76328,-0.21441 -1.03729,-0.35126 -0.11198,0.17297 -0.3357,0.31878 -0.68048,0.47442 -0.45169,0.2039 -0.92044,0.36736 -1.38065,0.55119 -3.71149,1.18099 -7.46123,2.29506 -11.366489,2.61124 -2.145918,0.17376 -4.160904,-0.23125 -6.28713,-0.50479 -0.84334,-0.35125 -1.546698,-0.612 -2.205201,-0.93227 -0.759922,0.27913 -1.524004,0.54603 -2.297884,0.7826 -2.564269,0.78388 -6.385796,1.54145 -8.883236,1.79606 -0.821853,0.0837 -8.236436,-0.072 -8.333855,-0.074 -1.101274,-0.0757 -2.203767,-0.13814 -3.3054,-0.20877 -4.688705,1.02234 -1.591822,0.27885 -6.101281,1.18633 -1.275265,0.25663 -2.544456,0.5413 -3.816842,0.81187 -2.533518,0.6987 -5.143989,1.00263 -7.742695,1.33324 -0.826574,0.10514 -1.652379,0.21767 -2.477971,0.33027 -0.503948,0.0687 -1.0023,0.18914 -1.510312,0.21374 -0.562766,0.0273 -1.126358,-0.0394 -1.689439,-0.0591 -0.03317,-0.007 -0.06668,-0.0142 -0.09989,-0.0215 -0.565456,0.37278 -1.10853,0.76968 -1.71489,1.09299 -0.944567,0.50363 -2.024086,0.85357 -2.977405,1.35478 -0.269522,0.13225 -0.559306,0.22941 -0.808703,0.39655 -1.172962,0.78605 -0.0031,0.3498 -0.813983,0.76768 0.797907,0.51297 0.801768,1.3974 -0.765002,3.37838 -0.220467,0.27874 -0.65493,0.0354 -0.982543,0.0309 -0.100533,-8.5e-4 -0.171119,-0.005 -0.258364,-0.008 -0.195983,0.76667 -0.947621,1.50853 -2.258025,1.68615 -0.404995,0.0549 -0.81012,0.10523 -1.215454,0.15299 z m 0,-23.04556 c 0.12998,-0.17049 0.274369,-0.32976 0.381782,-0.44238 -0.127017,-0.0248 -0.254551,-0.0473 -0.381782,-0.0712 z m 0,-3.21048 c 0.165883,-0.009 0.357273,-0.005 0.640144,0.004 0.611034,-0.0264 1.189538,0.23194 1.785001,0.30542 0.11629,0.0144 0.611826,0.0297 0.958533,0.0287 0.251143,-0.22815 0.498967,-0.45942 0.741469,-0.69478 0.445574,-0.66693 1.20078,-0.77703 1.834467,-1.09962 0.215117,-0.36823 0.631619,-0.70462 0.809663,-0.87152 1.064218,-0.64976 1.131022,-0.78634 2.581219,-1.09244 0.363771,-0.0768 0.737319,-0.0901 1.109804,-0.10825 -0.02348,-0.0364 -0.04939,-0.0713 -0.06723,-0.11046 -0.235153,-0.0824 -0.469955,-0.16472 -0.706893,-0.22478 -0.09009,-0.0228 -0.190441,-0.0417 -0.289097,-0.0613 -0.531316,0.096 -1.057584,0.18024 -1.376328,-0.17673 -0.0075,-0.008 -0.01259,-0.018 -0.01969,-0.0265 -0.01259,-0.002 -0.02841,-0.004 -0.04082,-0.005 0.0029,-0.0129 0.004,-0.0268 0.0067,-0.0398 -0.440074,-0.60649 0.04419,-1.56874 0.03986,-2.34283 0.172935,0.008 0.347077,0.0256 0.521528,0.0442 0.43912,-0.35865 1.184444,0.056 1.769634,0.0657 0.968858,0.016 1.937502,0.023 2.906335,0.026 0.06588,-0.0429 0.130894,-0.0871 0.196892,-0.12979 -0.373424,-0.13552 -0.72337,-0.34819 -1.07811,-0.5418 -0.150284,0.008 -0.300512,0.0129 -0.450932,0.0171 -0.823822,0.0229 -2.383761,0.20869 -2.913056,-0.77542 -0.283665,-0.52741 0.106597,-1.19295 0.159915,-1.78943 0.395767,-0.29817 0.738575,-0.68413 1.187122,-0.89471 2.209738,-1.03738 2.953978,-0.91692 5.378058,-1.06372 0.627672,-0.038 1.255219,-0.0726 1.88297,-0.10494 l -17.567175,-5.6e-4 z m 10.646627,-7.77022 c 0.134512,-0.023 0.24314,-0.0495 0.340961,-0.0773 -0.05797,-0.0428 -0.115969,-0.0853 -0.171439,-0.12924 -0.0549,0.0711 -0.10896,0.14312 -0.169522,0.20656 z m 0.509042,7.34495 c 0.04872,0.0155 0.01947,0.007 0.05618,0.0188 0.01382,-5.7e-4 0.02797,-0.002 0.04178,-0.003 -0.02257,-0.009 -0.0544,-0.0139 -0.07684,-0.0166 v -0.002 c -0.0224,-0.003 -0.03572,-0.002 -0.02112,0.003 z m 20.154636,-5.97913 0.398108,-5.6e-4 c 0.264022,-2.6e-4 0.497078,0.0301 0.702092,0.0828 0.02073,-0.0176 0.043,-0.0334 0.06339,-0.0514 0.511885,-0.18879 0.909004,-0.33861 1.307658,-0.48712 -0.151694,-0.11047 -0.29518,-0.22856 -0.428363,-0.35623 -0.608996,0.15108 -1.224399,0.30594 -1.839269,0.46061 0.02429,0.0556 0.0492,0.11083 0.07156,0.16735 0.03697,0.0935 -0.150405,0.14227 -0.245397,0.17507 -0.0102,0.004 -0.0196,0.006 -0.02977,0.009 z m 3.404327,-0.82512 c 9.83e-4,0.009 0.0079,0.0158 0.01969,0.0221 0.285586,-0.10092 0.56612,-0.19568 0.849522,-0.28443 0.151145,-0.11542 0.298877,-0.23772 0.452852,-0.34297 -0.09211,0.0125 -0.184043,0.025 -0.276129,0.0375 -0.136163,0.0319 -0.273733,0.0629 -0.409155,0.095 -0.201707,0.11732 -0.406718,0.26057 -0.619492,0.44294 -0.01313,0.0113 -0.01815,0.0212 -0.01729,0.0298 z m 10.25188,3.55346 c 0.929362,0.005 1.683745,0.002 1.900738,-0.0204 1.857852,-0.19189 3.699235,-0.53001 5.514445,-0.9759 -0.142746,-0.0281 -0.289394,-0.0582 -0.450935,-0.0955 -0.44922,-0.10361 -1.675559,-0.73926 -2.331979,-1.11563 -1.162141,-0.0616 -2.336662,-0.10941 -3.460515,-0.41477 -0.01952,-0.005 -0.04301,-0.0108 -0.06291,-0.016 -0.346572,0.0742 -0.693095,0.14844 -1.039692,0.22258 0.407862,0.61248 0.74979,1.29769 0.856247,2.02139 0.03197,0.21738 -0.376542,0.23387 -0.584438,0.30487 -0.104551,0.0357 -0.220573,0.0641 -0.340961,0.0895 z m 13.942424,-3.34028 c 0.0042,0.0216 0.0051,0.0427 0.0087,0.0641 0.0516,-0.0115 0.106703,-0.0223 0.152712,-0.0342 -0.05377,-0.01 -0.107652,-0.0195 -0.161357,-0.0298 z m 1.507911,0.565 c 0.04955,0.13255 0.142566,0.0981 0.259323,-0.0326 -0.06604,0.008 -0.167496,0.0203 -0.259323,0.0326 z m 0.733308,1.28187 c 7.38e-4,2.6e-4 0.0017,8.5e-4 0.0025,10e-4 1.664974,0.17173 3.697917,0.48259 5.414076,0.33138 2.012582,-0.17733 3.986315,-0.58887 5.934645,-1.10404 -0.25582,-0.004 -0.5116,-0.009 -0.7674,-0.011 -0.58206,-0.007 -1.16405,-0.009 -1.74611,-0.008 -0.12783,1.7e-4 -0.25539,0.003 -0.38322,0.004 -0.02196,0.0123 -0.04569,0.0225 -0.06723,0.0353 -0.346855,-0.001 -0.571049,0.0103 -0.719379,-0.0188 -0.07793,0.0157 -0.191705,0.0691 -0.187289,0.006 0.0027,-0.0399 0.0025,-0.0658 0.0048,-0.10439 -0.09196,-0.11518 -0.101141,-0.34404 -0.10421,-0.78978 -0.483164,-0.005 -1.93787,-0.0443 -2.289242,-0.0536 -0.670196,-0.0185 -1.33966,-0.0494 -2.008788,-0.0845 v -5.6e-4 c -0.206176,0.0515 -0.450858,0.10231 -0.716018,0.15243 -0.766887,0.75076 -1.898901,1.39083 -2.128365,1.53537 -0.08,0.0355 -0.159008,0.0731 -0.238672,0.10936 z M 109.7633,198.1389 c 0.0364,0.0501 0.0763,0.10448 0.10997,0.15188 0.009,-0.0283 0.0163,-0.0547 0.0269,-0.084 -0.0461,-0.0219 -0.0911,-0.0451 -0.13687,-0.0679 z m 1.71777,1.45309 c 0.0203,-0.0558 0.0464,-0.1103 0.0701,-0.16514 -0.0544,0.0813 -0.0917,0.22453 -0.0701,0.16514 z m 6.34572,1.06426 c 0.0546,0.0197 0.0988,0.0354 0.14935,0.053 0.0233,-0.008 0.0472,-0.0142 0.0706,-0.0215 -0.0316,-0.0149 -0.0654,-0.0264 -0.10181,-0.032 -0.0364,-0.006 -0.0756,-0.006 -0.11813,5.7e-4 z m 0.18441,2.61291 4.9e-4,5.6e-4 c 0.008,0.0232 0.16834,0.0513 0.1676,0.004 -5e-4,-0.027 -0.003,-0.0537 -0.004,-0.0806 h -4.9e-4 c -0.052,0.0228 -0.10504,0.0426 -0.15656,0.0668 -0.006,0.003 -0.008,0.006 -0.007,0.009 z m 4.2937,0.0906 c 0.0149,0.21495 0.0154,0.14071 0.0226,-0.01 -0.008,0.003 -0.015,0.007 -0.0226,0.01 z m 0.26125,-3.66833 c 0.2695,-0.0137 0.54964,-0.0283 0.82839,-0.0414 0.0123,-0.0285 0.0235,-0.0578 0.037,-0.0862 -0.2883,0.0454 -0.57486,0.10171 -0.86536,0.12758 z m 3.4461,5.95483 c 0.003,0.0314 0.13359,0.10141 0.13447,0.0591 9.8e-4,-0.0414 -5e-4,-0.0834 -9.9e-4,-0.12481 -0.042,0.0184 -0.0845,0.036 -0.1263,0.0547 -0.006,0.003 -0.008,0.007 -0.007,0.0111 z m 9.65256,-9.25589 c 0.3235,0.0388 1.87539,0.15703 2.21192,0.62299 0.0207,0.0287 0.0377,0.0601 0.0571,0.0895 0.56299,-0.004 1.12551,-0.007 1.68848,-0.0127 0.67586,-0.006 1.35218,-0.0107 2.028,-0.0182 0.45464,-0.11555 0.91007,-0.22886 1.3552,-0.34021 1.59844,-0.1627 2.16391,-0.2697 1.5713,1.21284 0.002,0.004 0.005,0.009 0.007,0.0133 0.12289,-0.006 0.24698,-0.01 0.37073,-0.0133 0.49652,-0.0862 1.0178,-0.17793 1.6366,-0.28498 0.83345,-0.16628 1.66861,-0.32489 2.50053,-0.49873 0.39033,-0.0815 0.77604,-0.18357 1.166,-0.26675 0.0943,-0.0201 0.27351,-0.13803 0.28622,-0.0425 0.0348,0.26185 0.0487,0.36811 0.0783,0.57549 1.31927,-0.11686 2.58258,-0.22695 4.31532,-0.37777 1.70175,-0.10769 3.3907,-0.32501 5.07601,-0.56555 v -2.2644 h -19.37236 c -0.0194,0.0588 -0.0393,0.11681 -0.0586,0.17563 0.0605,-0.0109 0.12125,-0.0182 0.18153,-0.0304 0.0728,-0.0147 -0.0602,0.0315 -0.18633,0.047 h -4.9e-4 c -0.0204,0.0624 -0.0412,0.12409 -0.0615,0.18667 0.28742,0.8224 0.59537,1.80659 -0.0331,1.77839 -0.0824,-0.004 -0.16444,-0.007 -0.24684,-0.0105 -0.20165,-0.004 -0.64366,-0.0155 -0.8356,-0.0105 -0.32201,0.009 -0.64263,0.10304 -0.96381,0.10604 -0.21693,0.002 -0.43324,-0.0267 -0.64975,-0.0403 -0.27524,-0.0658 -0.63535,-0.15677 -0.97342,-0.29824 -0.38074,0.0971 -0.7644,0.18267 -1.14822,0.26731 z m 4.91224,-1.97887 c 0.002,-0.006 0.003,-0.0111 0.005,-0.0166 -0.0196,0.004 -0.039,0.006 -0.0586,0.01 -9.9e-4,0.004 -0.002,0.008 -0.003,0.0127 0.0182,-2.5e-4 0.0374,-0.003 0.0567,-0.006 z m 6.88693,14.20002 c 0.1451,0.0303 0.29021,0.0601 0.43604,0.0856 0.0269,-0.004 0.0605,-0.008 0.0874,-0.0116 -0.0152,-0.0551 -0.0234,-0.11117 -0.0341,-0.16734 v -5.6e-4 c -0.14015,0.017 -0.2907,0.0342 -0.41826,0.0514 -0.0238,0.0141 -0.0472,0.0285 -0.0711,0.0425 z" />
    </clipPath>
    <clipPath
       clipPathUnits="userSpaceOnUse"
       id="clipPath2377-0-7">
      <path
         id="path2379-4-5"
         style="fill:#ff0000;fill-opacity:1;fill-rule:nonzero;stroke:none;stroke-width:0.264582"
         d="M 30.416874,232.13865 H 160.01183 V 215.6571 c -1.31785,0.20657 -3.51608,0.76738 -4.43347,0.10107 -0.96354,-0.6999 -1.17951,-1.25148 -1.16597,-1.93137 -0.003,2.2e-4 -0.007,8.5e-4 -0.0101,0.001 -0.82769,0.008 -1.56977,0.0736 -2.08225,-0.46503 -0.10462,-0.005 -0.20889,-0.0127 -0.31359,-0.0177 -1.71115,-0.0808 -0.69696,0.0401 -2.75602,-0.10825 -0.36631,-0.0265 -0.72976,-0.0782 -1.09491,-0.11764 -0.55804,-0.19975 -1.1393,-0.34468 -1.67457,-0.59924 -0.0648,-0.0308 -0.11578,-0.0811 -0.16326,-0.13587 -0.87244,-0.0227 -1.74393,-0.0662 -2.61388,-0.14304 -0.0584,-0.004 -2.21594,-0.11063 -2.29164,-0.16403 -0.43133,-0.30432 -1.0856,-0.61982 -1.0906,-1.14767 -0.005,-0.55315 0.12788,-0.87807 0.3352,-1.07531 -0.48703,-1.35375 -0.4114,-1.82742 0.16328,-2.07773 0.0646,-0.063 0.16674,-0.0913 0.29006,-0.10107 0.1662,-0.0476 0.35462,-0.0901 0.5705,-0.13586 0.26201,-0.0961 0.53375,-0.14918 0.80918,-0.18337 0.16828,-0.19954 0.36272,-0.38443 0.56621,-0.55505 -0.97911,0.49026 -2.28919,0.72174 -3.29149,0.96541 -0.48756,0.008 -0.98704,0.13139 -1.46277,0.0243 -0.0162,-0.004 -0.0318,-0.007 -0.048,-0.0105 -0.17628,0.0445 -0.35211,0.0901 -0.52969,0.12923 -0.78495,0.17292 -2.99831,0.12107 -3.59498,0.12206 -0.382,-0.0613 -0.76329,-0.12272 -1.14534,-0.18391 -0.35543,-0.0569 -0.83939,0.10911 -1.06658,-0.17011 -0.0189,-0.0232 -0.0347,-0.0481 -0.0528,-0.0724 -0.61026,0.0789 -1.16294,-0.0717 -0.63678,-1.32219 -0.0333,-0.11143 -0.0619,-0.2237 -0.0898,-0.33635 -0.65137,-0.0395 -1.30308,-0.0815 -1.95549,-0.0817 -0.34697,-2e-4 -0.69081,0.0632 -1.03632,0.095 -0.46767,0.0456 -0.935,0.0978 -1.40323,0.13697 -1.34393,0.11236 -1.93785,0.37416 -2.28059,-1.66186 -0.30416,-0.0374 -0.60638,-0.0839 -0.90379,-0.15629 -1.03722,-0.2522 -2.24758,-0.28302 -3.04464,-0.99303 -0.0892,-0.0795 -0.15245,-0.15859 -0.20554,-0.23748 -0.33296,-0.0391 -0.65211,-0.11771 -0.90186,-0.27063 -0.0843,0.0211 -0.16802,0.0444 -0.25164,0.0679 -0.34383,0.82631 -0.97062,0.84621 -1.91659,0.83673 -0.12674,-0.33214 -0.31327,-0.6527 -0.47254,-0.97866 -0.44844,-0.30931 -1.02841,-0.79571 -0.57627,-1.38737 0.66709,-0.87293 2.16886,-1.26119 3.23865,-1.38349 0.63113,-0.0722 1.21,-0.11963 1.77972,-0.16017 -0.18129,0.005 -0.36281,0.007 -0.5441,0.004 -0.29917,-0.005 -2.10965,-0.20074 -2.86935,-0.28333 v -5.7e-4 c -1.8659,0.12133 -3.71177,0.29757 -5.55863,0.59427 -0.26933,0.0183 -0.54693,0.12303 -0.80822,0.0552 -0.41273,-0.10706 -0.76328,-0.21441 -1.03729,-0.35126 -0.11198,0.17297 -0.3357,0.31878 -0.68048,0.47442 -0.45169,0.2039 -0.92044,0.36736 -1.38065,0.55119 -3.71149,1.18099 -7.46123,2.29506 -11.366489,2.61124 -2.145918,0.17376 -4.160904,-0.23125 -6.28713,-0.50479 -0.84334,-0.35125 -1.546698,-0.612 -2.205201,-0.93227 -0.759922,0.27913 -1.524004,0.54603 -2.297884,0.7826 -2.564269,0.78388 -6.385796,1.54145 -8.883236,1.79606 -0.821853,0.0837 -8.236436,-0.072 -8.333855,-0.074 -1.101274,-0.0757 -2.203767,-0.13814 -3.3054,-0.20877 -4.688705,1.02234 -1.591822,0.27885 -6.101281,1.18633 -1.275265,0.25663 -2.544456,0.5413 -3.816842,0.81187 -2.533518,0.6987 -5.143989,1.00263 -7.742695,1.33324 -0.826574,0.10514 -1.652379,0.21767 -2.477971,0.33027 -0.503948,0.0687 -1.0023,0.18914 -1.510312,0.21374 -0.562766,0.0273 -1.126358,-0.0394 -1.689439,-0.0591 -0.03317,-0.007 -0.06668,-0.0142 -0.09989,-0.0215 -0.565456,0.37278 -1.10853,0.76968 -1.71489,1.09299 -0.944567,0.50363 -2.024086,0.85357 -2.977405,1.35478 -0.269522,0.13225 -0.559306,0.22941 -0.808703,0.39655 -1.172962,0.78605 -0.0031,0.3498 -0.813983,0.76768 0.797907,0.51297 0.801768,1.3974 -0.765002,3.37838 -0.220467,0.27874 -0.65493,0.0354 -0.982543,0.0309 -0.100533,-8.5e-4 -0.171119,-0.005 -0.258364,-0.008 -0.195983,0.76667 -0.947621,1.50853 -2.258025,1.68615 -0.404995,0.0549 -0.81012,0.10523 -1.215454,0.15299 z m 0,-23.04556 c 0.12998,-0.17049 0.274369,-0.32976 0.381782,-0.44238 -0.127017,-0.0248 -0.254551,-0.0473 -0.381782,-0.0712 z m 0,-3.21048 c 0.165883,-0.009 0.357273,-0.005 0.640144,0.004 0.611034,-0.0264 1.189538,0.23194 1.785001,0.30542 0.11629,0.0144 0.611826,0.0297 0.958533,0.0287 0.251143,-0.22815 0.498967,-0.45942 0.741469,-0.69478 0.445574,-0.66693 1.20078,-0.77703 1.834467,-1.09962 0.215117,-0.36823 0.631619,-0.70462 0.809663,-0.87152 1.064218,-0.64976 1.131022,-0.78634 2.581219,-1.09244 0.363771,-0.0768 0.737319,-0.0901 1.109804,-0.10825 -0.02348,-0.0364 -0.04939,-0.0713 -0.06723,-0.11046 -0.235153,-0.0824 -0.469955,-0.16472 -0.706893,-0.22478 -0.09009,-0.0228 -0.190441,-0.0417 -0.289097,-0.0613 -0.531316,0.096 -1.057584,0.18024 -1.376328,-0.17673 -0.0075,-0.008 -0.01259,-0.018 -0.01969,-0.0265 -0.01259,-0.002 -0.02841,-0.004 -0.04082,-0.005 0.0029,-0.0129 0.004,-0.0268 0.0067,-0.0398 -0.440074,-0.60649 0.04419,-1.56874 0.03986,-2.34283 0.172935,0.008 0.347077,0.0256 0.521528,0.0442 0.43912,-0.35865 1.184444,0.056 1.769634,0.0657 0.968858,0.016 1.937502,0.023 2.906335,0.026 0.06588,-0.0429 0.130894,-0.0871 0.196892,-0.12979 -0.373424,-0.13552 -0.72337,-0.34819 -1.07811,-0.5418 -0.150284,0.008 -0.300512,0.0129 -0.450932,0.0171 -0.823822,0.0229 -2.383761,0.20869 -2.913056,-0.77542 -0.283665,-0.52741 0.106597,-1.19295 0.159915,-1.78943 0.395767,-0.29817 0.738575,-0.68413 1.187122,-0.89471 2.209738,-1.03738 2.953978,-0.91692 5.378058,-1.06372 0.627672,-0.038 1.255219,-0.0726 1.88297,-0.10494 l -17.567175,-5.6e-4 z m 10.646627,-7.77022 c 0.134512,-0.023 0.24314,-0.0495 0.340961,-0.0773 -0.05797,-0.0428 -0.115969,-0.0853 -0.171439,-0.12924 -0.0549,0.0711 -0.10896,0.14312 -0.169522,0.20656 z m 0.509042,7.34495 c 0.04872,0.0155 0.01947,0.007 0.05618,0.0188 0.01382,-5.7e-4 0.02797,-0.002 0.04178,-0.003 -0.02257,-0.009 -0.0544,-0.0139 -0.07684,-0.0166 v -0.002 c -0.0224,-0.003 -0.03572,-0.002 -0.02112,0.003 z m 20.154636,-5.97913 0.398108,-5.6e-4 c 0.264022,-2.6e-4 0.497078,0.0301 0.702092,0.0828 0.02073,-0.0176 0.043,-0.0334 0.06339,-0.0514 0.511885,-0.18879 0.909004,-0.33861 1.307658,-0.48712 -0.151694,-0.11047 -0.29518,-0.22856 -0.428363,-0.35623 -0.608996,0.15108 -1.224399,0.30594 -1.839269,0.46061 0.02429,0.0556 0.0492,0.11083 0.07156,0.16735 0.03697,0.0935 -0.150405,0.14227 -0.245397,0.17507 -0.0102,0.004 -0.0196,0.006 -0.02977,0.009 z m 3.404327,-0.82512 c 9.83e-4,0.009 0.0079,0.0158 0.01969,0.0221 0.285586,-0.10092 0.56612,-0.19568 0.849522,-0.28443 0.151145,-0.11542 0.298877,-0.23772 0.452852,-0.34297 -0.09211,0.0125 -0.184043,0.025 -0.276129,0.0375 -0.136163,0.0319 -0.273733,0.0629 -0.409155,0.095 -0.201707,0.11732 -0.406718,0.26057 -0.619492,0.44294 -0.01313,0.0113 -0.01815,0.0212 -0.01729,0.0298 z m 10.25188,3.55346 c 0.929362,0.005 1.683745,0.002 1.900738,-0.0204 1.857852,-0.19189 3.699235,-0.53001 5.514445,-0.9759 -0.142746,-0.0281 -0.289394,-0.0582 -0.450935,-0.0955 -0.44922,-0.10361 -1.675559,-0.73926 -2.331979,-1.11563 -1.162141,-0.0616 -2.336662,-0.10941 -3.460515,-0.41477 -0.01952,-0.005 -0.04301,-0.0108 -0.06291,-0.016 -0.346572,0.0742 -0.693095,0.14844 -1.039692,0.22258 0.407862,0.61248 0.74979,1.29769 0.856247,2.02139 0.03197,0.21738 -0.376542,0.23387 -0.584438,0.30487 -0.104551,0.0357 -0.220573,0.0641 -0.340961,0.0895 z m 13.942424,-3.34028 c 0.0042,0.0216 0.0051,0.0427 0.0087,0.0641 0.0516,-0.0115 0.106703,-0.0223 0.152712,-0.0342 -0.05377,-0.01 -0.107652,-0.0195 -0.161357,-0.0298 z m 1.507911,0.565 c 0.04955,0.13255 0.142566,0.0981 0.259323,-0.0326 -0.06604,0.008 -0.167496,0.0203 -0.259323,0.0326 z m 0.733308,1.28187 c 7.38e-4,2.6e-4 0.0017,8.5e-4 0.0025,10e-4 1.664974,0.17173 3.697917,0.48259 5.414076,0.33138 2.012582,-0.17733 3.986315,-0.58887 5.934645,-1.10404 -0.25582,-0.004 -0.5116,-0.009 -0.7674,-0.011 -0.58206,-0.007 -1.16405,-0.009 -1.74611,-0.008 -0.12783,1.7e-4 -0.25539,0.003 -0.38322,0.004 -0.02196,0.0123 -0.04569,0.0225 -0.06723,0.0353 -0.346855,-0.001 -0.571049,0.0103 -0.719379,-0.0188 -0.07793,0.0157 -0.191705,0.0691 -0.187289,0.006 0.0027,-0.0399 0.0025,-0.0658 0.0048,-0.10439 -0.09196,-0.11518 -0.101141,-0.34404 -0.10421,-0.78978 -0.483164,-0.005 -1.93787,-0.0443 -2.289242,-0.0536 -0.670196,-0.0185 -1.33966,-0.0494 -2.008788,-0.0845 v -5.6e-4 c -0.206176,0.0515 -0.450858,0.10231 -0.716018,0.15243 -0.766887,0.75076 -1.898901,1.39083 -2.128365,1.53537 -0.08,0.0355 -0.159008,0.0731 -0.238672,0.10936 z M 109.7633,198.1389 c 0.0364,0.0501 0.0763,0.10448 0.10997,0.15188 0.009,-0.0283 0.0163,-0.0547 0.0269,-0.084 -0.0461,-0.0219 -0.0911,-0.0451 -0.13687,-0.0679 z m 1.71777,1.45309 c 0.0203,-0.0558 0.0464,-0.1103 0.0701,-0.16514 -0.0544,0.0813 -0.0917,0.22453 -0.0701,0.16514 z m 6.34572,1.06426 c 0.0546,0.0197 0.0988,0.0354 0.14935,0.053 0.0233,-0.008 0.0472,-0.0142 0.0706,-0.0215 -0.0316,-0.0149 -0.0654,-0.0264 -0.10181,-0.032 -0.0364,-0.006 -0.0756,-0.006 -0.11813,5.7e-4 z m 0.18441,2.61291 4.9e-4,5.6e-4 c 0.008,0.0232 0.16834,0.0513 0.1676,0.004 -5e-4,-0.027 -0.003,-0.0537 -0.004,-0.0806 h -4.9e-4 c -0.052,0.0228 -0.10504,0.0426 -0.15656,0.0668 -0.006,0.003 -0.008,0.006 -0.007,0.009 z m 4.2937,0.0906 c 0.0149,0.21495 0.0154,0.14071 0.0226,-0.01 -0.008,0.003 -0.015,0.007 -0.0226,0.01 z m 0.26125,-3.66833 c 0.2695,-0.0137 0.54964,-0.0283 0.82839,-0.0414 0.0123,-0.0285 0.0235,-0.0578 0.037,-0.0862 -0.2883,0.0454 -0.57486,0.10171 -0.86536,0.12758 z m 3.4461,5.95483 c 0.003,0.0314 0.13359,0.10141 0.13447,0.0591 9.8e-4,-0.0414 -5e-4,-0.0834 -9.9e-4,-0.12481 -0.042,0.0184 -0.0845,0.036 -0.1263,0.0547 -0.006,0.003 -0.008,0.007 -0.007,0.0111 z m 9.65256,-9.25589 c 0.3235,0.0388 1.87539,0.15703 2.21192,0.62299 0.0207,0.0287 0.0377,0.0601 0.0571,0.0895 0.56299,-0.004 1.12551,-0.007 1.68848,-0.0127 0.67586,-0.006 1.35218,-0.0107 2.028,-0.0182 0.45464,-0.11555 0.91007,-0.22886 1.3552,-0.34021 1.59844,-0.1627 2.16391,-0.2697 1.5713,1.21284 0.002,0.004 0.005,0.009 0.007,0.0133 0.12289,-0.006 0.24698,-0.01 0.37073,-0.0133 0.49652,-0.0862 1.0178,-0.17793 1.6366,-0.28498 0.83345,-0.16628 1.66861,-0.32489 2.50053,-0.49873 0.39033,-0.0815 0.77604,-0.18357 1.166,-0.26675 0.0943,-0.0201 0.27351,-0.13803 0.28622,-0.0425 0.0348,0.26185 0.0487,0.36811 0.0783,0.57549 1.31927,-0.11686 2.58258,-0.22695 4.31532,-0.37777 1.70175,-0.10769 3.3907,-0.32501 5.07601,-0.56555 v -2.2644 h -19.37236 c -0.0194,0.0588 -0.0393,0.11681 -0.0586,0.17563 0.0605,-0.0109 0.12125,-0.0182 0.18153,-0.0304 0.0728,-0.0147 -0.0602,0.0315 -0.18633,0.047 h -4.9e-4 c -0.0204,0.0624 -0.0412,0.12409 -0.0615,0.18667 0.28742,0.8224 0.59537,1.80659 -0.0331,1.77839 -0.0824,-0.004 -0.16444,-0.007 -0.24684,-0.0105 -0.20165,-0.004 -0.64366,-0.0155 -0.8356,-0.0105 -0.32201,0.009 -0.64263,0.10304 -0.96381,0.10604 -0.21693,0.002 -0.43324,-0.0267 -0.64975,-0.0403 -0.27524,-0.0658 -0.63535,-0.15677 -0.97342,-0.29824 -0.38074,0.0971 -0.7644,0.18267 -1.14822,0.26731 z m 4.91224,-1.97887 c 0.002,-0.006 0.003,-0.0111 0.005,-0.0166 -0.0196,0.004 -0.039,0.006 -0.0586,0.01 -9.9e-4,0.004 -0.002,0.008 -0.003,0.0127 0.0182,-2.5e-4 0.0374,-0.003 0.0567,-0.006 z m 6.88693,14.20002 c 0.1451,0.0303 0.29021,0.0601 0.43604,0.0856 0.0269,-0.004 0.0605,-0.008 0.0874,-0.0116 -0.0152,-0.0551 -0.0234,-0.11117 -0.0341,-0.16734 v -5.6e-4 c -0.14015,0.017 -0.2907,0.0342 -0.41826,0.0514 -0.0238,0.0141 -0.0472,0.0285 -0.0711,0.0425 z" />
    </clipPath>
  </defs>
  <sodipodi:namedview
     id="base"
     pagecolor="#ffffff"
     bordercolor="#666666"
     borderopacity="1.0"
     inkscape:pageopacity="0.0"
     inkscape:pageshadow="2"
     inkscape:zoom="0.39250826"
     inkscape:cx="115.21598"
     inkscape:cy="179.03883"
     inkscape:document-units="mm"
     inkscape:current-layer="layer1"
     inkscape:document-rotation="0"
     showgrid="false"
     inkscape:snap-global="false"
     inkscape:window-width="1267"
     inkscape:window-height="1040"
     inkscape:window-x="451"
     inkscape:window-y="9"
     inkscape:window-maximized="0" />
  <metadata
     id="metadata5">
    <rdf:RDF>
      <cc:Work
         rdf:about="">
        <dc:format>image/svg+xml</dc:format>
        <dc:type
           rdf:resource="http://purl.org/dc/dcmitype/StillImage" />
        <dc:title></dc:title>
      </cc:Work>
    </rdf:RDF>
  </metadata>
  <g
     inkscape:label="Layer 1"
     inkscape:groupmode="layer"
     id="layer1">
    <circle
       style="opacity:1;fill:#a569bd;stroke:#6b31a9;stroke-width:1.5;stroke-linecap:round;stroke-linejoin:round;stroke-miterlimit:4;stroke-dasharray:none"
       id="path2000"
       cx="102.66145"
       cy="99.940674"
       r="72.382446" />
    <ellipse
       style="opacity:1;fill:none;stroke:#6b31a9;stroke-width:1.17205207;stroke-linecap:round;stroke-linejoin:round;stroke-miterlimit:4;stroke-dasharray:none"
       id="path2046-6"
       cx="95.214294"
       cy="213.17889"
       rx="64.206451"
       ry="18.368774"
       clip-path="url(#clipPath2104-1)"
       transform="matrix(1.1270668,0,0,1.4532457,-4.4862297,-208.64916)" />
    <ellipse
       style="opacity:1;fill:none;stroke:#6b31a9;stroke-width:1.31773543;stroke-linecap:round;stroke-linejoin:round;stroke-miterlimit:4;stroke-dasharray:none"
       id="path2046-5"
       cx="95.214294"
       cy="213.17889"
       rx="64.206451"
       ry="18.368774"
       clip-path="url(#clipPath2104-4)"
       transform="matrix(1.0149168,0,0,1.2767199,6.937963,-203.98866)" />
    <ellipse
       style="opacity:1;fill:none;stroke:#6b31a9;stroke-width:1.98667162;stroke-linecap:round;stroke-linejoin:round;stroke-miterlimit:4;stroke-dasharray:none"
       id="path2046-0"
       cx="95.214294"
       cy="213.17889"
       rx="64.206451"
       ry="18.368774"
       clip-path="url(#clipPath2104-6)"
       transform="matrix(0.70573763,0,0,0.80776879,37.118108,-129.05792)" />
    <ellipse
       style="opacity:1;fill:none;stroke:#6b31a9;stroke-width:2.15587894;stroke-linecap:round;stroke-linejoin:round;stroke-miterlimit:4;stroke-dasharray:none"
       id="path2199"
       cx="86.788246"
       cy="261.88144"
       rx="50.387737"
       ry="22.244755"
       clip-path="url(#clipPath2329)"
       transform="matrix(1.0398384,0,0,0.46555171,12.551976,27.053114)" />
    <ellipse
       style="opacity:1;fill:none;stroke:#6b31a9;stroke-width:1.29516161;stroke-linecap:round;stroke-linejoin:round;stroke-miterlimit:4;stroke-dasharray:none"
       id="path2046-8"
       cx="95.214294"
       cy="213.17889"
       rx="64.206451"
       ry="18.368774"
       clip-path="url(#clipPath2377-0)"
       transform="matrix(0,1.103509,-1.2155105,0,346.92067,-5.1369565)" />
    <ellipse
       style="opacity:1;fill:none;stroke:#6b31a9;stroke-width:1.29516161;stroke-linecap:round;stroke-linejoin:round;stroke-miterlimit:4;stroke-dasharray:none"
       id="path2046-8-7"
       cx="95.214294"
       cy="213.17889"
       rx="64.206451"
       ry="18.368774"
       clip-path="url(#clipPath2377-0-7)"
       transform="matrix(0,1.103509,1.2155105,0,-141.49375,-5.3054814)" />
  </g>
</svg>
